<svg width="730" height="456" viewBox="0 0 730 456" fill="none" xmlns="http://www.w3.org/2000/svg">
<g clip-path="url(#clip0_7_7272)">
<path d="M188.195 217.949C210.766 217.949 229.063 199.652 229.063 177.081C229.063 154.511 210.766 136.214 188.195 136.214C165.625 136.214 147.328 154.511 147.328 177.081C147.328 199.652 165.625 217.949 188.195 217.949Z" fill="#E2EBFB"/>
<path d="M146.271 166.89C155.964 162.907 160.593 151.82 156.609 142.127C152.626 132.433 141.539 127.805 131.845 131.788C122.152 135.771 117.523 146.858 121.507 156.552C125.49 166.245 136.577 170.874 146.271 166.89Z" fill="#E2EBFB"/>
<path d="M218.057 126.179C227.556 116.68 227.556 101.28 218.057 91.7815C208.559 82.2829 193.159 82.2829 183.66 91.7815C174.161 101.28 174.161 116.68 183.66 126.179C193.159 135.678 208.559 135.678 218.057 126.179Z" fill="#E2EBFB"/>
<path d="M186.72 108.319C189.055 98.3787 182.89 88.427 172.949 86.0918C163.008 83.7565 153.057 89.922 150.721 99.8628C148.386 109.803 154.552 119.755 164.492 122.09C174.433 124.426 184.385 118.26 186.72 108.319Z" fill="#E2EBFB"/>
<path d="M146.976 130.716C157.187 130.716 165.465 122.438 165.465 112.226C165.465 102.015 157.187 93.7372 146.976 93.7372C136.764 93.7372 128.486 102.015 128.486 112.226C128.486 122.438 136.764 130.716 146.976 130.716Z" fill="#E2EBFB"/>
<path d="M201.806 99.4533C212.018 99.4533 220.296 91.1753 220.296 80.964C220.296 70.7526 212.018 62.4747 201.806 62.4747C191.595 62.4747 183.317 70.7526 183.317 80.964C183.317 91.1753 191.595 99.4533 201.806 99.4533Z" fill="#E2EBFB"/>
<path d="M237.83 156.648C246.43 156.648 253.402 149.676 253.402 141.075C253.402 132.475 246.43 125.503 237.83 125.503C229.229 125.503 222.257 132.475 222.257 141.075C222.257 149.676 229.229 156.648 237.83 156.648Z" fill="#E2EBFB"/>
<path d="M265.555 109.947C278.183 109.947 288.419 99.7101 288.419 87.0824C288.419 74.4548 278.183 64.2181 265.555 64.2181C252.927 64.2181 242.691 74.4548 242.691 87.0824C242.691 99.7101 252.927 109.947 265.555 109.947Z" fill="#E2EBFB"/>
<path d="M317.603 39.409C317.603 41.432 317.003 43.4097 315.879 45.0916C314.755 46.7735 313.157 48.084 311.287 48.8575C309.418 49.6309 307.361 49.8324 305.377 49.4365C303.393 49.0406 301.571 48.0651 300.142 46.6334C298.712 45.2017 297.74 43.3781 297.347 41.3935C296.955 39.4089 297.16 37.3524 297.936 35.4843C298.713 33.6162 300.026 32.0204 301.709 30.8988C303.393 29.7773 305.372 29.1804 307.395 29.1837C308.737 29.1837 310.066 29.4483 311.305 29.9624C312.545 30.4764 313.671 31.2299 314.619 32.1796C315.567 33.1293 316.319 34.2567 316.831 35.4972C317.343 36.7377 317.606 38.067 317.603 39.409Z" fill="#E2EBFB"/>
<path d="M287.447 38.4369C287.451 40.0754 286.968 41.6781 286.06 43.0421C285.152 44.406 283.86 45.47 282.347 46.0993C280.834 46.7287 279.169 46.895 277.561 46.5774C275.954 46.2598 274.477 45.4725 273.317 44.315C272.157 43.1576 271.367 41.6821 271.046 40.0754C270.725 38.4686 270.888 36.8028 271.514 35.2887C272.141 33.7746 273.202 32.4803 274.564 31.5697C275.926 30.659 277.528 30.1729 279.167 30.1729C281.36 30.1729 283.464 31.043 285.016 32.5924C286.568 34.1417 287.443 36.2436 287.447 38.4369Z" fill="#E2EBFB"/>
<path d="M342.898 7.77792C342.902 9.32099 342.447 10.8303 341.592 12.1147C340.737 13.3991 339.519 14.4008 338.094 14.9928C336.669 15.5848 335.101 15.7406 333.587 15.4404C332.074 15.1402 330.683 14.3974 329.592 13.3063C328.501 12.2152 327.758 10.8248 327.458 9.31123C327.158 7.79765 327.314 6.22902 327.906 4.80404C328.498 3.37907 329.499 2.16188 330.784 1.30667C332.068 0.451456 333.577 -0.00329687 335.12 1.7994e-05C337.182 0.00444651 339.158 0.825324 340.615 2.28301C342.073 3.74069 342.894 5.71646 342.898 7.77792Z" fill="#E2EBFB"/>
<path d="M295.711 79.7906C304.043 79.7906 310.798 73.0362 310.798 64.7042C310.798 56.3721 304.043 49.6177 295.711 49.6177C287.379 49.6177 280.625 56.3721 280.625 64.7042C280.625 73.0362 287.379 79.7906 295.711 79.7906Z" fill="#E2EBFB"/>
<path d="M232.968 114.892C242.967 114.892 251.072 106.786 251.072 96.788C251.072 86.7896 242.967 78.6843 232.968 78.6843C222.97 78.6843 214.865 86.7896 214.865 96.788C214.865 106.786 222.97 114.892 232.968 114.892Z" fill="#E2EBFB"/>
<path d="M256.989 146.573C263.71 146.573 269.159 141.125 269.159 134.404C269.159 127.682 263.71 122.234 256.989 122.234C250.268 122.234 244.82 127.682 244.82 134.404C244.82 141.125 250.268 146.573 256.989 146.573Z" fill="#E2EBFB"/>
<path d="M256.537 120.289C263.258 120.289 268.706 114.841 268.706 108.12C268.706 101.398 263.258 95.9499 256.537 95.9499C249.816 95.9499 244.367 101.398 244.367 108.12C244.367 114.841 249.816 120.289 256.537 120.289Z" fill="#E2EBFB"/>
<path d="M287.799 134.337C294.52 134.337 299.969 128.888 299.969 122.167C299.969 115.446 294.52 109.997 287.799 109.997C281.078 109.997 275.629 115.446 275.629 122.167C275.629 128.888 281.078 134.337 287.799 134.337Z" fill="#E2EBFB"/>
<path d="M222.994 83.1264C229.716 83.1264 235.164 77.6778 235.164 70.9567C235.164 64.2355 229.716 58.7869 222.994 58.7869C216.273 58.7869 210.825 64.2355 210.825 70.9567C210.825 77.6778 216.273 83.1264 222.994 83.1264Z" fill="#E2EBFB"/>
<path d="M194.683 140.627C196.867 127.1 187.671 114.365 174.145 112.181C160.618 109.998 147.883 119.193 145.699 132.719C143.516 146.246 152.711 158.981 166.238 161.165C179.764 163.348 192.5 154.153 194.683 140.627Z" fill="#E2EBFB"/>
<path d="M256.126 123.724C257.552 114.97 251.611 106.719 242.857 105.293C234.104 103.867 225.852 109.808 224.426 118.562C223.001 127.315 228.941 135.567 237.695 136.993C246.448 138.418 254.7 132.478 256.126 123.724Z" fill="#E2EBFB"/>
<path d="M227.118 169.287C240.551 169.287 251.441 158.397 251.441 144.964C251.441 131.531 240.551 120.641 227.118 120.641C213.685 120.641 202.795 131.531 202.795 144.964C202.795 158.397 213.685 169.287 227.118 169.287Z" fill="#E2EBFB"/>
<path d="M197.448 181.943C213.834 181.943 227.118 168.659 227.118 152.273C227.118 135.886 213.834 122.602 197.448 122.602C181.062 122.602 167.778 135.886 167.778 152.273C167.778 168.659 181.062 181.943 197.448 181.943Z" fill="#E2EBFB"/>
<path d="M238.299 198.454C248.233 198.454 256.285 190.401 256.285 180.467C256.285 170.534 248.233 162.481 238.299 162.481C228.365 162.481 220.312 170.534 220.312 180.467C220.312 190.401 228.365 198.454 238.299 198.454Z" fill="#E2EBFB"/>
<path d="M146.372 201.404C156.583 201.404 164.861 193.126 164.861 182.915C164.861 172.704 156.583 164.426 146.372 164.426C136.161 164.426 127.883 172.704 127.883 182.915C127.883 193.126 136.161 201.404 146.372 201.404Z" fill="#E2EBFB"/>
<path d="M238.444 117.95C240.18 110.626 235.649 103.282 228.326 101.547C221.002 99.8118 213.658 104.342 211.923 111.666C210.187 118.99 214.718 126.334 222.041 128.069C229.365 129.804 236.709 125.274 238.444 117.95Z" fill="#E2EBFB"/>
<path d="M246.094 188.748C259.258 188.748 269.93 178.076 269.93 164.912C269.93 151.747 259.258 141.075 246.094 141.075C232.929 141.075 222.257 151.747 222.257 164.912C222.257 178.076 232.929 188.748 246.094 188.748Z" fill="#E2EBFB"/>
<path d="M258.498 294.488C249.765 236.354 256.302 192.771 256.302 192.771H120.34C120.34 192.771 127.045 236.354 118.093 294.471C109.142 352.587 75.6333 444.212 75.6333 444.212H300.254C300.254 444.212 267.282 352.587 258.498 294.488Z" fill="white" stroke="#03245F" stroke-width="1.67627" stroke-linecap="round" stroke-linejoin="round"/>
<path d="M205.88 310.53C196.174 317.453 178.372 317.469 168.415 310.53L181.339 288.034C185.211 289.71 189.033 290.18 192.872 287.917L205.88 310.53Z" fill="#03245F"/>
<path d="M198.504 278.261C197.649 273.232 197.163 272.344 192.671 268.086C194.817 264.432 197.012 260.744 199.175 257.023C201.337 253.301 203.466 249.563 205.578 245.875C216.139 250.1 225.911 267.164 224.235 278.261H198.504Z" fill="#03245F"/>
<path d="M168.583 245.909L181.725 268.203C180.152 269.177 178.817 270.491 177.819 272.049C176.821 273.607 176.185 275.369 175.958 277.205C175.848 277.493 175.665 277.748 175.427 277.945C175.189 278.142 174.904 278.274 174.601 278.328C166.42 278.328 158.24 278.328 150.11 278.328C148.3 267.365 157.955 250.418 168.583 245.909Z" fill="#03245F"/>
<path d="M187.29 285.754C186.295 285.781 185.305 285.61 184.378 285.25C183.45 284.891 182.602 284.351 181.885 283.662C181.168 282.973 180.594 282.148 180.198 281.235C179.803 280.322 179.592 279.34 179.579 278.345C179.561 277.348 179.74 276.357 180.106 275.429C180.471 274.501 181.016 273.654 181.708 272.936C182.401 272.219 183.228 271.644 184.143 271.247C185.057 270.849 186.041 270.635 187.038 270.617C188.036 270.6 189.027 270.779 189.955 271.144C190.883 271.509 191.73 272.054 192.447 272.747C193.165 273.439 193.739 274.266 194.137 275.181C194.535 276.096 194.748 277.079 194.766 278.077C194.78 280.082 194.003 282.013 192.603 283.45C191.204 284.886 189.295 285.714 187.29 285.754Z" fill="#03245F"/>
<path d="M92.2117 403.512H140.673" stroke="#03245F" stroke-width="1.67627" stroke-linecap="round" stroke-linejoin="round"/>
<path d="M196.258 384.973H177.014" stroke="#03245F" stroke-width="1.67627" stroke-linecap="round" stroke-linejoin="round"/>
<path d="M120.708 365.729H176.31" stroke="#03245F" stroke-width="1.67627" stroke-linecap="round" stroke-linejoin="round"/>
<path d="M249.01 316.547H226.196" stroke="#03245F" stroke-width="1.67627" stroke-linecap="round" stroke-linejoin="round"/>
<path d="M246.161 228.174H229.046" stroke="#03245F" stroke-width="1.67627" stroke-linecap="round" stroke-linejoin="round"/>
<path d="M127.849 246.697H149.943" stroke="#03245F" stroke-width="1.67627" stroke-linecap="round" stroke-linejoin="round"/>
<path d="M219.793 317.268H214.077" stroke="#03245F" stroke-width="1.67627" stroke-linecap="round" stroke-linejoin="round"/>
<path d="M183.435 365.729H189.855" stroke="#03245F" stroke-width="1.67627" stroke-linecap="round" stroke-linejoin="round"/>
<path d="M123.575 325.113H147.797" stroke="#03245F" stroke-width="1.67627" stroke-linecap="round" stroke-linejoin="round"/>
<path d="M154.217 325.817H163.487" stroke="#03245F" stroke-width="1.67627" stroke-linecap="round" stroke-linejoin="round"/>
<path d="M216.926 419.906H184.155" stroke="#03245F" stroke-width="1.67627" stroke-linecap="round" stroke-linejoin="round"/>
<path d="M185.58 216.055H144.243" stroke="#03245F" stroke-width="1.67627" stroke-linecap="round" stroke-linejoin="round"/>
<path d="M440.759 199.946C440.756 200.635 440.549 201.307 440.163 201.878C439.778 202.449 439.233 202.894 438.595 203.155C437.958 203.416 437.257 203.483 436.582 203.347C435.907 203.21 435.287 202.877 434.801 202.388C434.315 201.9 433.985 201.279 433.852 200.603C433.718 199.927 433.788 199.227 434.053 198.591C434.317 197.955 434.764 197.411 435.337 197.029C435.91 196.646 436.584 196.442 437.272 196.442C437.732 196.442 438.187 196.533 438.611 196.709C439.035 196.886 439.42 197.144 439.744 197.469C440.068 197.795 440.324 198.181 440.499 198.606C440.673 199.031 440.761 199.486 440.759 199.946Z" fill="#E2EBFB"/>
<path d="M423.644 222.794C426.329 222.794 428.506 220.617 428.506 217.932C428.506 215.248 426.329 213.071 423.644 213.071C420.96 213.071 418.783 215.248 418.783 217.932C418.783 220.617 420.96 222.794 423.644 222.794Z" fill="#E2EBFB"/>
<path d="M429.981 207.237C434.008 207.237 437.273 203.973 437.273 199.946C437.273 195.919 434.008 192.654 429.981 192.654C425.954 192.654 422.689 195.919 422.689 199.946C422.689 203.973 425.954 207.237 429.981 207.237Z" fill="#E2EBFB"/>
<path d="M434.457 216.608C434.457 217.301 434.251 217.978 433.866 218.554C433.481 219.13 432.934 219.579 432.294 219.845C431.654 220.11 430.949 220.179 430.27 220.044C429.59 219.909 428.966 219.575 428.476 219.085C427.986 218.595 427.652 217.971 427.517 217.291C427.382 216.612 427.451 215.907 427.716 215.267C427.982 214.627 428.431 214.08 429.007 213.695C429.583 213.31 430.26 213.104 430.953 213.104C431.882 213.104 432.773 213.474 433.43 214.131C434.087 214.788 434.457 215.679 434.457 216.608Z" fill="#E2EBFB"/>
<path d="M424.097 208.696C424.126 209.051 424.08 209.409 423.964 209.746C423.848 210.083 423.663 210.392 423.421 210.654C423.18 210.916 422.886 211.125 422.56 211.268C422.233 211.412 421.88 211.485 421.524 211.485C421.167 211.485 420.815 211.412 420.488 211.268C420.162 211.125 419.868 210.916 419.626 210.654C419.385 210.392 419.2 210.083 419.084 209.746C418.967 209.409 418.922 209.051 418.951 208.696C419.003 208.049 419.297 207.446 419.774 207.006C420.25 206.567 420.875 206.322 421.524 206.322C422.173 206.322 422.797 206.567 423.274 207.006C423.751 207.446 424.045 208.049 424.097 208.696Z" fill="#E2EBFB"/>
<path d="M439.183 191.095C439.183 192.04 438.903 192.964 438.378 193.749C437.853 194.535 437.107 195.147 436.234 195.509C435.361 195.87 434.401 195.965 433.474 195.781C432.547 195.596 431.696 195.141 431.028 194.473C430.36 193.805 429.905 192.954 429.72 192.027C429.536 191.1 429.631 190.14 429.992 189.267C430.354 188.394 430.966 187.648 431.752 187.123C432.537 186.598 433.461 186.318 434.406 186.318C435.672 186.322 436.884 186.827 437.779 187.722C438.674 188.617 439.179 189.829 439.183 191.095Z" fill="#E2EBFB"/>
<path d="M443.642 174.332C443.642 174.806 443.502 175.27 443.238 175.664C442.975 176.058 442.601 176.366 442.163 176.547C441.725 176.728 441.243 176.776 440.778 176.683C440.313 176.591 439.885 176.363 439.55 176.027C439.215 175.692 438.987 175.265 438.894 174.8C438.802 174.335 438.849 173.853 439.031 173.415C439.212 172.977 439.519 172.603 439.913 172.339C440.308 172.076 440.771 171.935 441.245 171.935C441.881 171.935 442.491 172.188 442.94 172.637C443.39 173.087 443.642 173.697 443.642 174.332Z" fill="#E2EBFB"/>
<path d="M431.875 180.216C431.872 180.905 431.664 181.577 431.279 182.149C430.894 182.72 430.348 183.164 429.711 183.425C429.074 183.687 428.373 183.753 427.698 183.617C427.023 183.48 426.403 183.147 425.917 182.659C425.431 182.171 425.101 181.549 424.967 180.873C424.834 180.198 424.904 179.497 425.169 178.861C425.433 178.225 425.88 177.682 426.453 177.299C427.026 176.917 427.699 176.713 428.388 176.713C428.847 176.713 429.302 176.803 429.726 176.98C430.151 177.156 430.536 177.414 430.86 177.74C431.184 178.065 431.44 178.452 431.614 178.877C431.789 179.302 431.877 179.757 431.875 180.216Z" fill="#E2EBFB"/>
<path d="M438.865 207.59C438.865 208.753 438.52 209.891 437.873 210.859C437.227 211.826 436.308 212.58 435.233 213.026C434.158 213.471 432.975 213.587 431.834 213.36C430.692 213.133 429.644 212.573 428.821 211.75C427.998 210.927 427.438 209.879 427.211 208.738C426.984 207.596 427.1 206.413 427.546 205.338C427.991 204.263 428.745 203.344 429.713 202.698C430.68 202.051 431.818 201.706 432.981 201.706C434.542 201.706 436.038 202.326 437.142 203.429C438.245 204.533 438.865 206.029 438.865 207.59Z" fill="#E2EBFB"/>
<path d="M430.953 212.283C430.953 213.212 430.677 214.12 430.161 214.893C429.644 215.665 428.91 216.266 428.052 216.621C427.193 216.976 426.249 217.068 425.338 216.885C424.427 216.703 423.59 216.254 422.935 215.596C422.279 214.938 421.833 214.1 421.654 213.189C421.475 212.277 421.57 211.333 421.928 210.476C422.286 209.618 422.89 208.886 423.664 208.373C424.438 207.859 425.347 207.586 426.276 207.59C426.892 207.59 427.501 207.711 428.07 207.947C428.638 208.183 429.155 208.529 429.589 208.965C430.024 209.402 430.368 209.919 430.602 210.488C430.836 211.058 430.955 211.668 430.953 212.283Z" fill="#E2EBFB"/>
<path d="M464.177 195.152C464.18 196.118 463.896 197.063 463.362 197.868C462.827 198.673 462.065 199.301 461.173 199.672C460.281 200.043 459.299 200.141 458.351 199.954C457.404 199.766 456.533 199.301 455.85 198.618C455.166 197.935 454.701 197.064 454.514 196.116C454.326 195.168 454.424 194.186 454.795 193.294C455.167 192.402 455.794 191.64 456.599 191.106C457.404 190.571 458.349 190.287 459.316 190.291C460.605 190.291 461.841 190.803 462.753 191.714C463.665 192.626 464.177 193.862 464.177 195.152Z" fill="#E2EBFB"/>
<path d="M472.927 177.149C472.927 178.591 472.499 180.001 471.698 181.2C470.897 182.399 469.758 183.333 468.425 183.885C467.093 184.437 465.627 184.582 464.213 184.3C462.798 184.019 461.499 183.324 460.479 182.305C459.459 181.285 458.765 179.986 458.483 178.571C458.202 177.157 458.346 175.691 458.898 174.358C459.45 173.026 460.385 171.887 461.584 171.086C462.783 170.284 464.193 169.857 465.635 169.857C467.569 169.857 469.424 170.625 470.791 171.993C472.159 173.36 472.927 175.215 472.927 177.149Z" fill="#E2EBFB"/>
<path d="M470.111 193.811C470.114 194.504 469.911 195.183 469.529 195.762C469.146 196.34 468.6 196.792 467.96 197.059C467.32 197.327 466.615 197.399 465.934 197.266C465.254 197.132 464.628 196.8 464.136 196.311C463.644 195.821 463.309 195.197 463.173 194.517C463.036 193.837 463.104 193.132 463.369 192.491C463.634 191.85 464.083 191.301 464.659 190.916C465.236 190.53 465.914 190.324 466.607 190.324C467.067 190.322 467.522 190.41 467.947 190.585C468.372 190.759 468.758 191.015 469.084 191.339C469.409 191.663 469.668 192.049 469.844 192.473C470.02 192.897 470.111 193.352 470.111 193.811Z" fill="#E2EBFB"/>
<path d="M459.818 185.899C459.822 186.41 459.673 186.911 459.391 187.337C459.11 187.764 458.708 188.098 458.236 188.296C457.765 188.494 457.246 188.547 456.744 188.449C456.242 188.352 455.78 188.107 455.418 187.747C455.055 187.386 454.807 186.927 454.706 186.425C454.605 185.924 454.655 185.404 454.85 184.932C455.045 184.459 455.376 184.055 455.801 183.77C456.226 183.486 456.726 183.334 457.237 183.334C457.919 183.334 458.573 183.604 459.056 184.084C459.54 184.565 459.814 185.217 459.818 185.899Z" fill="#E2EBFB"/>
<path d="M474.888 168.264C474.888 169.209 474.608 170.133 474.083 170.919C473.558 171.704 472.812 172.317 471.939 172.678C471.066 173.04 470.105 173.134 469.179 172.95C468.252 172.766 467.401 172.311 466.733 171.642C466.064 170.974 465.609 170.123 465.425 169.196C465.241 168.27 465.335 167.309 465.697 166.436C466.059 165.563 466.671 164.817 467.456 164.292C468.242 163.767 469.166 163.487 470.111 163.487C471.376 163.491 472.589 163.996 473.484 164.891C474.379 165.786 474.884 166.999 474.888 168.264Z" fill="#E2EBFB"/>
<path d="M477.721 182.613C479.045 182.613 480.118 181.54 480.118 180.216C480.118 178.892 479.045 177.819 477.721 177.819C476.397 177.819 475.324 178.892 475.324 180.216C475.324 181.54 476.397 182.613 477.721 182.613Z" fill="#E2EBFB"/>
<path d="M476.061 149.859C476.071 150.333 475.94 150.8 475.684 151.2C475.428 151.6 475.06 151.915 474.625 152.105C474.19 152.295 473.708 152.352 473.241 152.268C472.773 152.184 472.341 151.963 472 151.633C471.658 151.303 471.422 150.88 471.322 150.416C471.222 149.952 471.261 149.468 471.436 149.027C471.611 148.585 471.913 148.206 472.303 147.936C472.694 147.666 473.156 147.519 473.631 147.512C474.264 147.503 474.875 147.745 475.33 148.184C475.785 148.624 476.048 149.226 476.061 149.859Z" fill="#E2EBFB"/>
<path d="M472.86 155.742C472.86 156.217 472.719 156.68 472.456 157.074C472.192 157.468 471.818 157.776 471.38 157.957C470.942 158.138 470.46 158.186 469.995 158.093C469.53 158.001 469.103 157.773 468.768 157.437C468.433 157.102 468.204 156.675 468.112 156.21C468.019 155.745 468.067 155.263 468.248 154.825C468.43 154.387 468.737 154.013 469.131 153.749C469.525 153.486 469.989 153.345 470.463 153.345C471.098 153.345 471.708 153.598 472.158 154.047C472.607 154.497 472.86 155.107 472.86 155.742Z" fill="#E2EBFB"/>
<path d="M467.529 157.419C467.529 158.109 467.325 158.783 466.942 159.356C466.558 159.929 466.014 160.376 465.377 160.64C464.74 160.904 464.039 160.973 463.362 160.839C462.686 160.704 462.065 160.372 461.577 159.884C461.09 159.397 460.757 158.776 460.623 158.099C460.488 157.423 460.557 156.722 460.821 156.085C461.085 155.448 461.532 154.903 462.105 154.52C462.679 154.137 463.353 153.932 464.043 153.932C464.967 153.932 465.854 154.3 466.508 154.954C467.162 155.607 467.529 156.494 467.529 157.419Z" fill="#E2EBFB"/>
<path d="M474.519 184.809C474.519 185.973 474.174 187.11 473.528 188.078C472.881 189.045 471.962 189.8 470.887 190.245C469.812 190.69 468.629 190.807 467.488 190.58C466.346 190.353 465.298 189.792 464.475 188.97C463.652 188.147 463.092 187.098 462.865 185.957C462.638 184.816 462.755 183.633 463.2 182.558C463.645 181.482 464.399 180.563 465.367 179.917C466.334 179.27 467.472 178.925 468.636 178.925C469.408 178.925 470.173 179.078 470.887 179.373C471.601 179.669 472.25 180.102 472.796 180.649C473.342 181.195 473.776 181.844 474.072 182.558C474.367 183.271 474.519 184.036 474.519 184.809Z" fill="#E2EBFB"/>
<path d="M466.607 189.419C466.611 190.349 466.338 191.258 465.823 192.033C465.309 192.807 464.576 193.411 463.718 193.769C462.859 194.126 461.914 194.22 461.002 194.04C460.09 193.859 459.252 193.412 458.595 192.754C457.938 192.097 457.49 191.259 457.31 190.347C457.129 189.435 457.223 188.49 457.581 187.632C457.938 186.773 458.542 186.041 459.317 185.526C460.091 185.012 461.001 184.739 461.931 184.742C463.171 184.742 464.36 185.235 465.238 186.112C466.115 186.989 466.607 188.178 466.607 189.419Z" fill="#E2EBFB"/>
<path d="M500.937 173.461C500.941 174.426 500.657 175.371 500.123 176.176C499.589 176.98 498.829 177.608 497.938 177.98C497.047 178.351 496.065 178.45 495.118 178.264C494.171 178.078 493.3 177.614 492.616 176.933C491.932 176.251 491.466 175.382 491.276 174.436C491.087 173.489 491.182 172.507 491.551 171.615C491.92 170.723 492.545 169.96 493.348 169.423C494.15 168.886 495.094 168.6 496.059 168.6C496.699 168.598 497.333 168.722 497.925 168.965C498.516 169.208 499.054 169.566 499.508 170.018C499.961 170.469 500.32 171.006 500.566 171.597C500.811 172.188 500.937 172.821 500.937 173.461Z" fill="#E2EBFB"/>
<path d="M509.687 155.457C509.691 156.904 509.264 158.32 508.463 159.524C507.661 160.728 506.52 161.668 505.183 162.223C503.847 162.778 502.376 162.924 500.957 162.643C499.538 162.361 498.234 161.665 497.211 160.642C496.188 159.619 495.491 158.315 495.21 156.896C494.928 155.476 495.075 154.006 495.63 152.669C496.185 151.333 497.124 150.192 498.329 149.39C499.533 148.588 500.949 148.162 502.396 148.165C504.329 148.165 506.184 148.934 507.552 150.301C508.919 151.669 509.687 153.523 509.687 155.457Z" fill="#E2EBFB"/>
<path d="M506.871 172.12C506.875 172.814 506.672 173.493 506.289 174.071C505.906 174.649 505.36 175.101 504.72 175.369C504.08 175.636 503.375 175.708 502.695 175.575C502.014 175.442 501.388 175.109 500.897 174.62C500.405 174.131 500.07 173.506 499.933 172.826C499.797 172.146 499.865 171.441 500.13 170.8C500.394 170.159 500.843 169.611 501.42 169.225C501.996 168.839 502.674 168.633 503.368 168.633C504.294 168.633 505.183 169 505.839 169.654C506.496 170.307 506.867 171.194 506.871 172.12Z" fill="#E2EBFB"/>
<path d="M496.579 164.275C496.579 164.785 496.428 165.284 496.144 165.709C495.86 166.133 495.457 166.464 494.985 166.66C494.514 166.855 493.995 166.906 493.494 166.807C492.993 166.707 492.533 166.461 492.172 166.1C491.811 165.739 491.565 165.279 491.466 164.778C491.366 164.278 491.417 163.759 491.612 163.287C491.808 162.815 492.139 162.412 492.563 162.128C492.988 161.845 493.487 161.693 493.997 161.693C494.336 161.693 494.672 161.76 494.985 161.89C495.299 162.02 495.583 162.21 495.823 162.449C496.063 162.689 496.253 162.974 496.382 163.287C496.512 163.6 496.579 163.936 496.579 164.275Z" fill="#E2EBFB"/>
<path d="M511.649 146.573C511.649 147.518 511.369 148.442 510.844 149.228C510.319 150.013 509.573 150.625 508.7 150.987C507.827 151.349 506.866 151.443 505.939 151.259C505.013 151.075 504.161 150.62 503.493 149.951C502.825 149.283 502.37 148.432 502.186 147.505C502.001 146.579 502.096 145.618 502.458 144.745C502.819 143.872 503.432 143.126 504.217 142.601C505.003 142.076 505.927 141.796 506.871 141.796C508.138 141.796 509.354 142.299 510.25 143.195C511.145 144.091 511.649 145.306 511.649 146.573Z" fill="#E2EBFB"/>
<path d="M516.057 129.844C516.047 130.316 515.898 130.774 515.629 131.162C515.36 131.549 514.982 131.849 514.543 132.023C514.104 132.196 513.624 132.237 513.163 132.139C512.701 132.041 512.279 131.808 511.948 131.471C511.618 131.134 511.395 130.707 511.306 130.243C511.218 129.78 511.268 129.3 511.451 128.865C511.634 128.43 511.941 128.059 512.334 127.798C512.727 127.536 513.188 127.397 513.66 127.397C513.979 127.397 514.295 127.46 514.589 127.584C514.883 127.708 515.15 127.889 515.373 128.117C515.596 128.345 515.772 128.615 515.889 128.911C516.007 129.208 516.064 129.525 516.057 129.844Z" fill="#E2EBFB"/>
<path d="M514.867 169.454C514.867 170.148 514.661 170.826 514.276 171.403C513.89 171.979 513.342 172.428 512.701 172.693C512.059 172.957 511.354 173.026 510.674 172.889C509.994 172.753 509.37 172.417 508.881 171.926C508.391 171.434 508.059 170.808 507.926 170.128C507.792 169.447 507.864 168.742 508.132 168.102C508.4 167.462 508.851 166.916 509.43 166.533C510.008 166.15 510.687 165.948 511.381 165.951C512.307 165.955 513.194 166.327 513.847 166.983C514.5 167.64 514.867 168.528 514.867 169.454Z" fill="#E2EBFB"/>
<path d="M511.263 163.118C511.263 164.282 510.918 165.419 510.272 166.387C509.625 167.354 508.706 168.109 507.631 168.554C506.556 168.999 505.373 169.116 504.232 168.889C503.09 168.662 502.042 168.101 501.219 167.278C500.396 166.456 499.836 165.407 499.609 164.266C499.382 163.125 499.498 161.942 499.944 160.866C500.389 159.791 501.143 158.872 502.111 158.226C503.078 157.579 504.216 157.234 505.38 157.234C506.94 157.234 508.437 157.854 509.54 158.958C510.643 160.061 511.263 161.558 511.263 163.118Z" fill="#E2EBFB"/>
<path d="M498.691 172.489C501.283 172.489 503.385 170.387 503.385 167.795C503.385 165.203 501.283 163.102 498.691 163.102C496.099 163.102 493.998 165.203 493.998 167.795C493.998 170.387 496.099 172.489 498.691 172.489Z" fill="#E2EBFB"/>
<path d="M523.416 142.601C523.416 143.499 523.15 144.377 522.651 145.124C522.151 145.871 521.442 146.454 520.612 146.797C519.782 147.141 518.868 147.231 517.987 147.056C517.106 146.881 516.297 146.448 515.661 145.813C515.026 145.177 514.593 144.368 514.418 143.487C514.243 142.606 514.333 141.692 514.677 140.862C515.02 140.032 515.603 139.323 516.35 138.823C517.097 138.324 517.975 138.058 518.874 138.058C520.078 138.058 521.234 138.536 522.086 139.388C522.938 140.24 523.416 141.396 523.416 142.601Z" fill="#E2EBFB"/>
<path d="M518.589 164.207C520.005 164.207 521.153 163.059 521.153 161.643C521.153 160.226 520.005 159.078 518.589 159.078C517.172 159.078 516.024 160.226 516.024 161.643C516.024 163.059 517.172 164.207 518.589 164.207Z" fill="#E2EBFB"/>
<path d="M529.099 123.843C529.099 124.506 528.902 125.154 528.534 125.706C528.165 126.257 527.642 126.687 527.029 126.94C526.416 127.194 525.742 127.26 525.092 127.131C524.442 127.002 523.844 126.682 523.376 126.214C522.907 125.745 522.587 125.147 522.458 124.497C522.329 123.847 522.395 123.173 522.649 122.56C522.902 121.947 523.332 121.424 523.884 121.055C524.435 120.687 525.083 120.49 525.746 120.49C526.635 120.49 527.488 120.844 528.117 121.472C528.745 122.101 529.099 122.954 529.099 123.843Z" fill="#E2EBFB"/>
<path d="M544.453 112.478C544.453 113.042 544.286 113.594 543.972 114.063C543.658 114.532 543.212 114.897 542.69 115.112C542.168 115.327 541.595 115.383 541.041 115.271C540.488 115.16 539.98 114.887 539.583 114.487C539.185 114.087 538.915 113.577 538.807 113.023C538.699 112.47 538.757 111.896 538.976 111.376C539.194 110.855 539.562 110.411 540.033 110.1C540.503 109.789 541.056 109.625 541.62 109.628C541.994 109.628 542.364 109.702 542.708 109.845C543.053 109.989 543.366 110.199 543.629 110.464C543.893 110.729 544.101 111.043 544.242 111.389C544.384 111.734 544.455 112.104 544.453 112.478Z" fill="#E2EBFB"/>
<path d="M532.518 132.66C532.535 133.058 532.432 133.451 532.224 133.79C532.015 134.129 531.709 134.398 531.347 134.562C530.984 134.726 530.581 134.777 530.188 134.71C529.796 134.643 529.433 134.46 529.145 134.184C528.858 133.909 528.659 133.554 528.575 133.165C528.491 132.776 528.526 132.371 528.674 132.001C528.822 131.632 529.077 131.315 529.407 131.092C529.737 130.869 530.125 130.75 530.524 130.749C531.04 130.745 531.537 130.942 531.91 131.299C532.282 131.656 532.501 132.144 532.518 132.66Z" fill="#E2EBFB"/>
<path d="M489.086 178.255H504.357L509.453 355.571H484.007L489.086 178.255Z" fill="#03245F" stroke="#03245F" stroke-width="1.67627" stroke-linecap="round" stroke-linejoin="round"/>
<path d="M453.8 201.253H469.071L474.15 378.553H448.705L453.8 201.253Z" fill="#03245F" stroke="#03245F" stroke-width="1.67627" stroke-linecap="round" stroke-linejoin="round"/>
<path d="M418.498 224.235H433.769L438.848 401.534H413.402L418.498 224.235Z" fill="#03245F" stroke="#03245F" stroke-width="1.67627" stroke-linecap="round" stroke-linejoin="round"/>
<path d="M521.673 291.52H324.141V444.212H521.673V291.52Z" fill="white" stroke="#03245F" stroke-width="1.67627" stroke-linecap="round" stroke-linejoin="round"/>
<path d="M521.673 291.52H324.141V311.501H521.673V291.52Z" fill="#03245F" stroke="#03245F" stroke-width="1.67627" stroke-linecap="round" stroke-linejoin="round"/>
<path d="M528.344 291.52H317.469V306.724H528.344V291.52Z" fill="white" stroke="#03245F" stroke-width="1.67627" stroke-linecap="round" stroke-linejoin="round"/>
<path d="M348.866 347.19H220.078V444.229H348.866V347.19Z" fill="white" stroke="#03245F" stroke-width="1.67627" stroke-linecap="round" stroke-linejoin="round"/>
<path d="M352.453 344.189H216.491V356.761H352.453V344.189Z" fill="white" stroke="#03245F" stroke-width="1.67627" stroke-linecap="round" stroke-linejoin="round"/>
<path d="M241.048 361.186H224.872V377.362H241.048V361.186Z" fill="#03245F" stroke="#03245F" stroke-width="1.67627" stroke-linecap="round" stroke-linejoin="round"/>
<path d="M266.796 361.186H250.62V377.362H266.796V361.186Z" fill="#03245F" stroke="#03245F" stroke-width="1.67627" stroke-linecap="round" stroke-linejoin="round"/>
<path d="M292.56 361.186H276.384V377.362H292.56V361.186Z" fill="#03245F" stroke="#03245F" stroke-width="1.67627" stroke-linecap="round" stroke-linejoin="round"/>
<path d="M318.307 361.186H302.131V377.362H318.307V361.186Z" fill="#03245F" stroke="#03245F" stroke-width="1.67627" stroke-linecap="round" stroke-linejoin="round"/>
<path d="M344.072 361.186H327.896V377.362H344.072V361.186Z" fill="#03245F" stroke="#03245F" stroke-width="1.67627" stroke-linecap="round" stroke-linejoin="round"/>
<path d="M241.048 385.157H224.872V401.333H241.048V385.157Z" fill="#03245F" stroke="#03245F" stroke-width="1.67627" stroke-linecap="round" stroke-linejoin="round"/>
<path d="M266.796 385.157H250.62V401.333H266.796V385.157Z" fill="#03245F" stroke="#03245F" stroke-width="1.67627" stroke-linecap="round" stroke-linejoin="round"/>
<path d="M292.56 385.157H276.384V401.333H292.56V385.157Z" fill="#03245F" stroke="#03245F" stroke-width="1.67627" stroke-linecap="round" stroke-linejoin="round"/>
<path d="M318.307 385.157H302.131V401.333H318.307V385.157Z" fill="#03245F" stroke="#03245F" stroke-width="1.67627" stroke-linecap="round" stroke-linejoin="round"/>
<path d="M241.048 407.904H224.872V424.08H241.048V407.904Z" fill="#03245F" stroke="#03245F" stroke-width="1.67627" stroke-linecap="round" stroke-linejoin="round"/>
<path d="M266.796 407.904H250.62V424.08H266.796V407.904Z" fill="#03245F" stroke="#03245F" stroke-width="1.67627" stroke-linecap="round" stroke-linejoin="round"/>
<path d="M292.56 407.904H276.384V424.08H292.56V407.904Z" fill="#03245F" stroke="#03245F" stroke-width="1.67627" stroke-linecap="round" stroke-linejoin="round"/>
<path d="M318.307 407.904H302.131V424.08H318.307V407.904Z" fill="#03245F" stroke="#03245F" stroke-width="1.67627" stroke-linecap="round" stroke-linejoin="round"/>
<path d="M624.395 347.19H495.607V444.229H624.395V347.19Z" fill="white" stroke="#03245F" stroke-width="1.67627" stroke-linecap="round" stroke-linejoin="round"/>
<path d="M627.982 344.189H492.02V356.761H627.982V344.189Z" fill="white" stroke="#03245F" stroke-width="1.67627" stroke-linecap="round" stroke-linejoin="round"/>
<path d="M516.577 361.186H500.401V377.362H516.577V361.186Z" fill="#03245F" stroke="#03245F" stroke-width="1.67627" stroke-linecap="round" stroke-linejoin="round"/>
<path d="M542.341 361.186H526.165V377.362H542.341V361.186Z" fill="#03245F" stroke="#03245F" stroke-width="1.67627" stroke-linecap="round" stroke-linejoin="round"/>
<path d="M568.089 361.186H551.913V377.362H568.089V361.186Z" fill="#03245F" stroke="#03245F" stroke-width="1.67627" stroke-linecap="round" stroke-linejoin="round"/>
<path d="M593.853 361.186H577.677V377.362H593.853V361.186Z" fill="#03245F" stroke="#03245F" stroke-width="1.67627" stroke-linecap="round" stroke-linejoin="round"/>
<path d="M619.601 361.186H603.425V377.362H619.601V361.186Z" fill="#03245F" stroke="#03245F" stroke-width="1.67627" stroke-linecap="round" stroke-linejoin="round"/>
<path d="M542.341 385.157H526.165V401.333H542.341V385.157Z" fill="#03245F" stroke="#03245F" stroke-width="1.67627" stroke-linecap="round" stroke-linejoin="round"/>
<path d="M568.089 385.157H551.913V401.333H568.089V385.157Z" fill="#03245F" stroke="#03245F" stroke-width="1.67627" stroke-linecap="round" stroke-linejoin="round"/>
<path d="M593.853 385.157H577.677V401.333H593.853V385.157Z" fill="#03245F" stroke="#03245F" stroke-width="1.67627" stroke-linecap="round" stroke-linejoin="round"/>
<path d="M619.601 385.157H603.425V401.333H619.601V385.157Z" fill="#03245F" stroke="#03245F" stroke-width="1.67627" stroke-linecap="round" stroke-linejoin="round"/>
<path d="M542.341 407.904H526.165V424.08H542.341V407.904Z" fill="#03245F" stroke="#03245F" stroke-width="1.67627" stroke-linecap="round" stroke-linejoin="round"/>
<path d="M568.089 407.904H551.913V424.08H568.089V407.904Z" fill="#03245F" stroke="#03245F" stroke-width="1.67627" stroke-linecap="round" stroke-linejoin="round"/>
<path d="M593.853 407.904H577.677V424.08H593.853V407.904Z" fill="#03245F" stroke="#03245F" stroke-width="1.67627" stroke-linecap="round" stroke-linejoin="round"/>
<path d="M619.601 407.904H603.425V424.08H619.601V407.904Z" fill="#03245F" stroke="#03245F" stroke-width="1.67627" stroke-linecap="round" stroke-linejoin="round"/>
<path d="M504.005 400.495H344.072V444.229H504.005V400.495Z" fill="white" stroke="#03245F" stroke-width="1.67627" stroke-linecap="round" stroke-linejoin="round"/>
<path d="M504.005 400.495H344.072V411.743H504.005V400.495Z" fill="#03245F" stroke="#03245F" stroke-width="1.67627" stroke-linecap="round" stroke-linejoin="round"/>
<path d="M509.386 384.923H338.674V407.686H509.386V384.923Z" fill="white" stroke="#03245F" stroke-width="1.67627" stroke-linecap="round" stroke-linejoin="round"/>
<path d="M418.934 412.481H352.453V444.229H418.934V412.481Z" fill="white" stroke="#03245F" stroke-width="1.67627" stroke-linecap="round" stroke-linejoin="round"/>
<path d="M495.607 412.481H429.126V444.229H495.607V412.481Z" fill="white" stroke="#03245F" stroke-width="1.67627" stroke-linecap="round" stroke-linejoin="round"/>
<path d="M352.554 416.302H418.649" stroke="#03245F" stroke-width="1.67627" stroke-linecap="round" stroke-linejoin="round"/>
<path d="M352.554 419.856H418.649" stroke="#03245F" stroke-width="1.67627" stroke-linecap="round" stroke-linejoin="round"/>
<path d="M352.554 423.427H418.649" stroke="#03245F" stroke-width="1.67627" stroke-linecap="round" stroke-linejoin="round"/>
<path d="M352.554 426.98H418.649" stroke="#03245F" stroke-width="1.67627" stroke-linecap="round" stroke-linejoin="round"/>
<path d="M352.554 430.551H418.649" stroke="#03245F" stroke-width="1.67627" stroke-linecap="round" stroke-linejoin="round"/>
<path d="M352.554 434.104H418.649" stroke="#03245F" stroke-width="1.67627" stroke-linecap="round" stroke-linejoin="round"/>
<path d="M352.554 437.675H418.649" stroke="#03245F" stroke-width="1.67627" stroke-linecap="round" stroke-linejoin="round"/>
<path d="M352.554 441.229H418.649" stroke="#03245F" stroke-width="1.67627" stroke-linecap="round" stroke-linejoin="round"/>
<path d="M429.243 416.302H495.339" stroke="#03245F" stroke-width="1.67627" stroke-linecap="round" stroke-linejoin="round"/>
<path d="M429.243 419.856H495.339" stroke="#03245F" stroke-width="1.67627" stroke-linecap="round" stroke-linejoin="round"/>
<path d="M429.243 423.427H495.339" stroke="#03245F" stroke-width="1.67627" stroke-linecap="round" stroke-linejoin="round"/>
<path d="M429.243 426.98H495.339" stroke="#03245F" stroke-width="1.67627" stroke-linecap="round" stroke-linejoin="round"/>
<path d="M429.243 430.551H495.339" stroke="#03245F" stroke-width="1.67627" stroke-linecap="round" stroke-linejoin="round"/>
<path d="M429.243 434.104H495.339" stroke="#03245F" stroke-width="1.67627" stroke-linecap="round" stroke-linejoin="round"/>
<path d="M429.243 437.675H495.339" stroke="#03245F" stroke-width="1.67627" stroke-linecap="round" stroke-linejoin="round"/>
<path d="M429.243 441.229H495.339" stroke="#03245F" stroke-width="1.67627" stroke-linecap="round" stroke-linejoin="round"/>
<path d="M398.886 324.66H375.418V374.949H398.886V324.66Z" fill="#03245F" stroke="#03245F" stroke-width="1.67627" stroke-linecap="round" stroke-linejoin="round"/>
<path d="M434.641 324.66H411.173V374.949H434.641V324.66Z" fill="#03245F" stroke="#03245F" stroke-width="1.67627" stroke-linecap="round" stroke-linejoin="round"/>
<path d="M470.412 324.66H446.945V374.949H470.412V324.66Z" fill="#03245F" stroke="#03245F" stroke-width="1.67627" stroke-linecap="round" stroke-linejoin="round"/>
<path d="M705.828 444.229H712.299" stroke="#03245F" stroke-width="1.67627" stroke-linecap="round" stroke-linejoin="round"/>
<path d="M26.418 444.229H699.022" stroke="#03245F" stroke-width="1.67627" stroke-linecap="round" stroke-linejoin="round"/>
<path d="M0.838135 454.421H729.162" stroke="#03245F" stroke-width="1.67627" stroke-linecap="round" stroke-linejoin="round"/>
<path d="M6.97339 444.229H15.1033" stroke="#03245F" stroke-width="1.67627" stroke-linecap="round" stroke-linejoin="round"/>
</g>
<defs>
<clipPath id="clip0_7_7272">
<rect width="730" height="455.259" fill="white"/>
</clipPath>
</defs>
</svg>
