<svg width="40" height="40" viewBox="0 0 40 40" fill="none" xmlns="http://www.w3.org/2000/svg">
<path d="M7.86621 10.8838C8.11035 11.1279 8.43018 11.25 8.75 11.25C9.06982 11.25 9.38965 11.1279 9.63379 10.8838L12.1338 8.38379C12.6221 7.89551 12.6221 7.10449 12.1338 6.61621C11.6455 6.12793 10.8545 6.12793 10.3662 6.61621L8.75 8.23242L8.38379 7.86621C7.89551 7.37793 7.10449 7.37793 6.61621 7.86621C6.12793 8.35449 6.12793 9.14551 6.61621 9.63379L7.86621 10.8838Z" fill="white"/>
<path d="M29.1162 10.8838C29.3604 11.1279 29.6802 11.25 30 11.25C30.3198 11.25 30.6396 11.1279 30.8838 10.8838L31.25 10.5176L31.6162 10.8838C31.8604 11.1279 32.1802 11.25 32.5 11.25C32.8198 11.25 33.1396 11.1279 33.3838 10.8838C33.8721 10.3955 33.8721 9.60449 33.3838 9.11621L33.0176 8.75L33.3838 8.38379C33.8721 7.89551 33.8721 7.10449 33.3838 6.61621C32.8955 6.12793 32.1045 6.12793 31.6162 6.61621L31.25 6.98242L30.8838 6.61621C30.3955 6.12793 29.6045 6.12793 29.1162 6.61621C28.6279 7.10449 28.6279 7.89551 29.1162 8.38379L29.4824 8.75L29.1162 9.11621C28.6279 9.60449 28.6279 10.3955 29.1162 10.8838Z" fill="white"/>
<path d="M20 10C22.0711 10 23.75 8.32107 23.75 6.25C23.75 4.17893 22.0711 2.5 20 2.5C17.9289 2.5 16.25 4.17893 16.25 6.25C16.25 8.32107 17.9289 10 20 10Z" fill="white"/>
<path d="M15 16.25H25C25.6903 16.25 26.25 15.6909 26.25 15C26.25 12.2424 24.0015 10 21.2378 10H20H18.7622C15.9985 10 13.75 12.2424 13.75 15C13.75 15.6909 14.3097 16.25 15 16.25Z" fill="white"/>
<path d="M17.5 17.5H3.75C3.05962 17.5 2.5 18.0596 2.5 18.75V36.25C2.5 36.9403 3.05962 37.5 3.75 37.5H17.5C18.1904 37.5 18.75 36.9403 18.75 36.25V18.75C18.75 18.0596 18.1904 17.5 17.5 17.5ZM6.25 33.75C5.55962 33.75 5 33.1903 5 32.5C5 31.8096 5.55962 31.25 6.25 31.25C6.94038 31.25 7.5 31.8096 7.5 32.5C7.5 33.1903 6.94038 33.75 6.25 33.75ZM6.25 28.75C5.55962 28.75 5 28.1903 5 27.5C5 26.8096 5.55962 26.25 6.25 26.25C6.94038 26.25 7.5 26.8096 7.5 27.5C7.5 28.1903 6.94038 28.75 6.25 28.75ZM6.25 23.75C5.55962 23.75 5 23.1903 5 22.5C5 21.8096 5.55962 21.25 6.25 21.25C6.94038 21.25 7.5 21.8096 7.5 22.5C7.5 23.1903 6.94038 23.75 6.25 23.75ZM15.625 33.75H9.375C9.02954 33.75 8.75 33.4705 8.75 33.125C8.75 32.7795 9.02954 32.5 9.375 32.5H15.625C15.9705 32.5 16.25 32.7795 16.25 33.125C16.25 33.4705 15.9705 33.75 15.625 33.75ZM15.625 28.75H9.375C9.02954 28.75 8.75 28.4705 8.75 28.125C8.75 27.7795 9.02954 27.5 9.375 27.5H15.625C15.9705 27.5 16.25 27.7795 16.25 28.125C16.25 28.4705 15.9705 28.75 15.625 28.75ZM15.625 23.75H9.375C9.02954 23.75 8.75 23.4705 8.75 23.125C8.75 22.7795 9.02954 22.5 9.375 22.5H15.625C15.9705 22.5 16.25 22.7795 16.25 23.125C16.25 23.4705 15.9705 23.75 15.625 23.75Z" fill="white"/>
<path d="M36.25 17.5H22.5C21.8096 17.5 21.25 18.0596 21.25 18.75V36.25C21.25 36.9403 21.8096 37.5 22.5 37.5H36.25C36.9404 37.5 37.5 36.9403 37.5 36.25V18.75C37.5 18.0596 36.9404 17.5 36.25 17.5ZM26.25 33.75H23.75V31.25H26.25V33.75ZM26.25 28.75H23.75V26.25H26.25V28.75ZM26.25 23.75H23.75V21.25H26.25V23.75ZM34.375 33.75H28.125C27.7795 33.75 27.5 33.4705 27.5 33.125C27.5 32.7795 27.7795 32.5 28.125 32.5H34.375C34.7205 32.5 35 32.7795 35 33.125C35 33.4705 34.7205 33.75 34.375 33.75ZM34.375 28.75H28.125C27.7795 28.75 27.5 28.4705 27.5 28.125C27.5 27.7795 27.7795 27.5 28.125 27.5H34.375C34.7205 27.5 35 27.7795 35 28.125C35 28.4705 34.7205 28.75 34.375 28.75ZM34.375 23.75H28.125C27.7795 23.75 27.5 23.4705 27.5 23.125C27.5 22.7795 27.7795 22.5 28.125 22.5H34.375C34.7205 22.5 35 22.7795 35 23.125C35 23.4705 34.7205 23.75 34.375 23.75Z" fill="white"/>
</svg>
