<svg width="40" height="40" viewBox="0 0 40 40" fill="none" xmlns="http://www.w3.org/2000/svg">
<g clip-path="url(#clip0_7_1429)">
<path d="M0 24.7059H7.05874V39.9998H0V24.7059Z" fill="white"/>
<path d="M39.9587 28.2156C39.6725 26.6886 38.0358 25.8289 36.616 26.46L25.785 32.4731C25.1103 32.7655 24.3855 32.9222 23.6511 32.9379C24.8939 32.8745 25.8821 31.8467 25.8821 30.5882C25.8821 29.2887 24.8286 28.2352 23.5292 28.2352C22.0305 28.2352 20.5358 28.0865 19.0658 27.7945C17.3844 27.4606 15.1476 27.0588 14.1175 27.0588C12.8957 27.0588 10.9064 27.2749 9.41162 27.6495V37.6469C9.49593 37.6568 10.4927 37.5993 11.6404 38.173L14.2417 39.4737C14.9337 39.8197 15.6967 39.9998 16.4704 39.9998H20.5858C24.0298 39.9998 27.3873 38.9202 30.1857 36.9129L38.7516 30.7686C39.6634 30.268 40.1504 29.2381 39.9587 28.2156Z" fill="white"/>
<path d="M37.6467 17.6472V11.7649H30.5879V17.6472H28.235V9.41199H21.1763V17.6472H18.8233V12.9414H11.7645V17.6472H9.41162V20.0001H39.9995V17.6472H37.6467Z" fill="white"/>
<path d="M15.294 10.5883C17.2401 10.5883 18.8234 9.00496 18.8234 7.05894C18.8234 7.03667 18.8221 7.01471 18.8217 6.99251L22.0053 5.79864C22.6532 6.56844 23.6231 7.05886 24.7058 7.05886C25.9322 7.05886 27.0142 6.42969 27.6469 5.47747L30.6043 6.21683C30.7733 8.00662 32.2841 9.41178 34.1174 9.41178C36.0635 9.41178 37.6468 7.82842 37.6468 5.88241C37.6468 3.93639 36.0635 2.35304 34.1174 2.35304C32.8908 2.35304 31.809 2.98228 31.1762 3.93443L28.2188 3.19506C28.0498 1.40528 26.5391 0.00012207 24.7058 0.00012207C22.7596 0.00012207 21.1764 1.58348 21.1764 3.52949C21.1764 3.55177 21.1776 3.57381 21.178 3.59592L17.9945 4.78979C17.3465 4.02 16.3767 3.52957 15.294 3.52957C13.3479 3.52957 11.7646 5.11292 11.7646 7.05894C11.7646 9.00496 13.3479 10.5883 15.294 10.5883Z" fill="white"/>
</g>
<defs>
<clipPath id="clip0_7_1429">
<rect width="40" height="40" fill="white"/>
</clipPath>
</defs>
</svg>
