<svg width="15" height="16" viewBox="0 0 15 16" fill="none" xmlns="http://www.w3.org/2000/svg">
<g clip-path="url(#clip0_7_250)">
<path d="M7.5 15.5C3.375 15.5 0 12.125 0 8C0 3.875 3.375 0.5 7.5 0.5C11.625 0.5 15 3.875 15 8C15 12.125 11.625 15.5 7.5 15.5ZM7.5 2C4.2 2 1.5 4.7 1.5 8C1.5 11.3 4.2 14 7.5 14C10.8 14 13.5 11.3 13.5 8C13.5 4.7 10.8 2 7.5 2Z" fill="#F2F2F2"/>
<path d="M7.5 10.25C8.1 10.25 8.7 10.025 9.075 9.575L10.125 10.625C9.45 11.375 8.475 11.75 7.5 11.75C5.4 11.75 3.75 10.1 3.75 8C3.75 5.9 5.4 4.25 7.5 4.25C8.475 4.25 9.45 4.625 10.125 5.375L9.075 6.425C8.625 5.975 8.1 5.75 7.5 5.75C6.225 5.75 5.25 6.725 5.25 8C5.25 9.275 6.225 10.25 7.5 10.25Z" fill="#F2F2F2"/>
</g>
<defs>
<clipPath id="clip0_7_250">
<rect width="15" height="15" fill="white" transform="matrix(1 0 0 -1 0 15.5)"/>
</clipPath>
</defs>
</svg>
