<svg width="18" height="19" viewBox="0 0 18 19" fill="none" xmlns="http://www.w3.org/2000/svg">
<path fill-rule="evenodd" clip-rule="evenodd" d="M3.59998 4.10005C3.59998 3.10594 4.40586 2.30005 5.39998 2.30005H9.5272C10.0046 2.30005 10.4624 2.48969 10.8 2.82726L13.8728 5.90005C14.2103 6.23761 14.4 6.69545 14.4 7.17284V14.9C14.4 15.8942 13.5941 16.7 12.6 16.7H5.39998C4.40586 16.7 3.59998 15.8942 3.59998 14.9V4.10005ZM5.39998 9.50005C5.39998 9.003 5.80292 8.60005 6.29998 8.60005H11.7C12.197 8.60005 12.6 9.003 12.6 9.50005C12.6 9.99712 12.197 10.4 11.7 10.4H6.29998C5.80292 10.4 5.39998 9.99712 5.39998 9.50005ZM6.29998 12.2C5.80292 12.2 5.39998 12.603 5.39998 13.1C5.39998 13.5971 5.80292 14 6.29998 14H11.7C12.197 14 12.6 13.5971 12.6 13.1C12.6 12.603 12.197 12.2 11.7 12.2H6.29998Z" fill="#F2F2F2"/>
</svg>
