<svg width="18" height="18" viewBox="0 0 18 18" fill="none" xmlns="http://www.w3.org/2000/svg">
<path fill-rule="evenodd" clip-rule="evenodd" d="M3.6001 3.60005C3.6001 2.60594 4.40598 1.80005 5.4001 1.80005H9.52732C10.0047 1.80005 10.4625 1.98969 10.8001 2.32726L13.8729 5.40005C14.2105 5.73761 14.4001 6.19545 14.4001 6.67284V14.4C14.4001 15.3942 13.5942 16.2 12.6001 16.2H5.4001C4.40598 16.2 3.6001 15.3942 3.6001 14.4V3.60005ZM5.4001 9.00005C5.4001 8.503 5.80305 8.10005 6.3001 8.10005H11.7001C12.1972 8.10005 12.6001 8.503 12.6001 9.00005C12.6001 9.49712 12.1972 9.90005 11.7001 9.90005H6.3001C5.80305 9.90005 5.4001 9.49712 5.4001 9.00005ZM6.3001 11.7C5.80305 11.7 5.4001 12.103 5.4001 12.6C5.4001 13.0971 5.80305 13.5 6.3001 13.5H11.7001C12.1972 13.5 12.6001 13.0971 12.6001 12.6C12.6001 12.103 12.1972 11.7 11.7001 11.7H6.3001Z" fill="#F2F2F2"/>
</svg>
