<svg width="40" height="40" viewBox="0 0 40 40" fill="none" xmlns="http://www.w3.org/2000/svg">
<path d="M32.9407 12.2238C33.2074 12.0104 33.2526 11.6246 33.0392 11.3578C32.8299 11.0911 32.4441 11.0459 32.1774 11.2593C32.1076 11.3127 31.0366 12.1745 30.1912 13.7257L31.0324 14.805C31.7793 13.1718 32.916 12.2402 32.9407 12.2238Z" fill="white"/>
<path d="M38.6203 18.8433C37.7585 18.2729 36.2524 17.4849 34.6272 17.6286C32.8339 17.7886 31.3729 19.0362 30.6917 19.7338C30.4454 18.8474 30.3552 17.9733 30.425 17.1197C30.3018 17.1566 30.1705 17.173 30.0392 17.173H29.99L29.1938 17.1238C29.0543 19.1306 29.6493 21.1866 30.9748 23.2591C30.0802 23.5751 28.2621 24.3917 27.3552 26.0127C26.555 27.4367 26.6535 29.1316 26.8217 30.1535C26.9038 30.6624 27.4332 30.962 27.9133 30.765C28.8736 30.3752 30.3715 29.5749 31.1676 28.1509C31.8775 26.8869 31.8817 25.4013 31.7503 24.3713C32.054 24.7734 32.3906 25.1797 32.7517 25.5819C32.8748 25.7173 33.0431 25.787 33.2113 25.787C33.3549 25.787 33.5027 25.7337 33.6217 25.6311C33.8761 25.4013 33.8966 25.0155 33.6709 24.7611C32.4726 23.4232 31.6026 22.0977 31.0609 20.7968C31.9309 21.3673 33.4124 22.1223 35.0088 21.9828C36.6339 21.8433 37.98 20.8091 38.731 20.095C39.1045 19.7379 39.0511 19.1305 38.6203 18.8433Z" fill="white"/>
<path d="M19.1515 13.907C17.2386 10.2498 16.49 6.43328 16.9283 2.54352C14.9978 3.04727 14.1165 4.16219 14.1694 6.00532C14.1979 7.02547 13.8428 8.03258 13.1699 8.84196C11.9708 10.285 11.3299 11.7324 11.2473 13.1484C12.7216 14.6131 14.4519 15.9868 16.4624 17.2696L19.1515 13.907Z" fill="white"/>
<path d="M30.0316 15.9431C30.1166 15.9459 30.1566 15.9009 30.1783 15.8603C30.1999 15.8195 30.2152 15.757 30.1638 15.6908L28.5071 13.5624C28.3977 13.4219 28.3544 13.2409 28.3885 13.0664C28.3928 13.044 28.3985 13.0193 28.4005 12.9969C28.6602 11.3513 27.6583 10.2981 26.7225 9.88493C25.7751 9.46673 24.3031 9.43548 23.2728 10.7247L17.522 17.9159C17.6409 17.9868 17.753 18.0599 17.8737 18.1302C18.1674 18.3013 18.2668 18.6783 18.0957 18.972C17.9246 19.266 17.5467 19.3648 17.2541 19.1938C16.9453 19.0139 16.6512 18.8292 16.3533 18.6458C16.305 18.6247 16.2581 18.5995 16.2149 18.565C16.2114 18.5622 16.209 18.5588 16.2056 18.5559C9.1644 14.179 5.17854 8.7854 4.07205 2.11212C2.0426 3.29095 1.42463 4.82329 2.12713 6.88376C2.46096 7.86181 2.40002 8.95329 1.95518 9.95704C0.344551 13.593 0.809863 16.5056 3.37799 18.8617C3.99275 19.4257 4.43236 20.1926 4.61674 21.0212C5.4351 24.703 7.7744 26.4397 11.7535 26.3399C12.0994 26.3235 12.376 26.5995 12.3847 26.9395C12.3935 27.2793 12.1254 27.5619 11.7856 27.5706C11.6633 27.5738 11.5419 27.5755 11.4221 27.5755C10.8813 27.5755 10.3667 27.5427 9.87752 27.4786L4.62033 34.0508C4.18549 34.5934 4.04322 35.318 4.23963 35.9895C4.42877 36.6361 4.89525 37.1278 5.51924 37.3388C8.30658 38.2809 11.4481 38.0099 14.8563 36.5323C15.6867 36.1709 16.1824 35.3148 16.0894 34.4016L15.8922 32.4094C15.7768 31.2728 16.5606 30.2378 17.6772 30.0547C20.8645 29.5311 23.2687 28.1759 24.6292 26.1358C25.965 24.133 26.2944 21.4785 25.5823 18.4592C25.4252 17.7919 25.5891 17.1074 26.0324 16.5808C26.4808 16.0482 27.1365 15.7678 27.831 15.8074L30.0316 15.9431ZM25.6395 13.4392C25.1686 13.4392 24.7919 13.059 24.7919 12.5881C24.7919 12.1208 25.1686 11.7406 25.6395 11.7406C26.1069 11.7406 26.4871 12.1208 26.4871 12.5881C26.4871 13.0589 26.1069 13.4392 25.6395 13.4392Z" fill="white"/>
</svg>
