<svg width="40" height="40" viewBox="0 0 40 40" fill="none" xmlns="http://www.w3.org/2000/svg">
<path d="M34.941 24.8573C34.6975 23.8341 34.2922 22.8564 33.7405 21.9609L34.5759 20.0801L32.3584 17.8627L30.477 18.6986C29.5818 18.1471 28.6044 17.7419 27.5816 17.4983L26.8425 15.5783H23.7067L22.9677 17.4983C21.9449 17.7419 20.9675 18.1471 20.0723 18.6986L18.1908 17.8627L15.9734 20.0802L16.8088 21.9614C16.2573 22.8566 15.8521 23.8341 15.6085 24.857L13.6887 25.5959V28.7319L15.6082 29.4707C15.8518 30.4939 16.2571 31.4717 16.8088 32.3672L15.9734 34.248L18.1908 36.4655L20.0723 35.6295C20.9675 36.181 21.9449 36.5862 22.9677 36.8298L23.7067 38.75H26.8426L27.5814 36.8305C28.6045 36.5869 29.5822 36.1816 30.4776 35.6299L32.3585 36.4653L34.5759 34.2478L33.7399 32.3664C34.2914 31.4712 34.6966 30.4938 34.9403 29.471L36.8603 28.732V25.5961L34.941 24.8573ZM25.2746 32.6328C24.193 32.6328 23.1357 32.3121 22.2364 31.7112C21.337 31.1102 20.6361 30.2561 20.2222 29.2569C19.8082 28.2576 19.6999 27.158 19.911 26.0972C20.122 25.0363 20.6428 24.0619 21.4076 23.2971C22.1725 22.5323 23.1469 22.0114 24.2077 21.8004C25.2686 21.5894 26.3681 21.6977 27.3674 22.1116C28.3667 22.5255 29.2208 23.2265 29.8217 24.1258C30.4226 25.0251 30.7434 26.0824 30.7434 27.1641C30.7434 28.6145 30.1672 30.0055 29.1416 31.0311C28.116 32.0566 26.725 32.6328 25.2746 32.6328ZM28.3621 24.9584C28.5143 25.1098 28.6001 25.3155 28.6007 25.5302C28.6014 25.7449 28.5168 25.951 28.3656 26.1034C27.2868 27.1922 26.2153 28.2881 25.1313 29.372C24.9791 29.5241 24.7727 29.6095 24.5575 29.6095C24.3423 29.6095 24.1359 29.5241 23.9837 29.372L22.1856 27.5739C22.0335 27.4217 21.948 27.2153 21.9479 27.0001C21.9479 26.7849 22.0334 26.5785 22.1856 26.4263C22.3378 26.2741 22.5442 26.1886 22.7594 26.1886C22.9746 26.1886 23.181 26.2741 23.3332 26.4263L24.5557 27.6487L27.216 24.962C27.291 24.8864 27.3801 24.8263 27.4784 24.7852C27.5766 24.7442 27.6819 24.7229 27.7884 24.7225C27.8948 24.7222 28.0003 24.7429 28.0988 24.7834C28.1972 24.8239 28.2867 24.8835 28.3621 24.9586V24.9584ZM25.4568 5.21703V1.31031C25.5328 1.34555 25.6018 1.39416 25.6606 1.45383L29.568 5.36117C29.6277 5.41995 29.6763 5.48899 29.7115 5.565H25.8045C25.7124 5.56475 25.624 5.528 25.5589 5.46279C25.4937 5.39758 25.457 5.30922 25.4568 5.21703ZM15.409 32.4391C15.0624 31.792 14.7807 31.1123 14.5678 30.4098L12.4387 29.5903V24.7379L14.568 23.9183C14.6036 23.8008 14.6412 23.6839 14.6806 23.5677H13.6885C13.5227 23.5677 13.3637 23.5019 13.2465 23.3847C13.1293 23.2675 13.0635 23.1085 13.0635 22.9427C13.0635 22.777 13.1293 22.618 13.2465 22.5008C13.3637 22.3836 13.5227 22.3177 13.6885 22.3177H15.1913C15.2607 22.1735 15.3332 22.0307 15.4089 21.8895L14.4824 19.8035L15.0971 19.1888H13.6887C13.5229 19.1888 13.364 19.123 13.2467 19.0058C13.1295 18.8886 13.0637 18.7296 13.0637 18.5638C13.0637 18.3981 13.1295 18.2391 13.2467 18.1219C13.364 18.0047 13.5229 17.9388 13.6887 17.9388H16.3473L17.9139 16.372L19.9999 17.2987C20.6467 16.9523 21.3262 16.6706 22.0285 16.4577L22.1264 16.2031H13.6887C13.5229 16.2031 13.364 16.1373 13.2467 16.0201C13.1295 15.9029 13.0637 15.7439 13.0637 15.5781C13.0637 15.4124 13.1295 15.2534 13.2467 15.1362C13.364 15.019 13.5229 14.9531 13.6887 14.9531H22.6079L22.8485 14.3281H27.7008L28.5205 16.4576C28.9465 16.5867 29.3643 16.7413 29.7718 16.9204V6.815H25.8045C25.3809 6.81461 24.9747 6.64611 24.6752 6.34651C24.3756 6.04691 24.2072 5.64069 24.2069 5.21703V1.25H3.8351C3.65063 1.25035 3.47382 1.32379 3.34338 1.45422C3.21295 1.58466 3.13951 1.76147 3.13916 1.94594V35.0724C3.13951 35.2569 3.21295 35.4337 3.34338 35.5641C3.47382 35.6946 3.65063 35.768 3.8351 35.7684H15.7264L14.4828 34.5248L15.409 32.4391ZM13.6887 7.58852H26.7405C26.9062 7.58852 27.0652 7.65436 27.1824 7.77157C27.2996 7.88878 27.3655 8.04776 27.3655 8.21352C27.3655 8.37928 27.2996 8.53825 27.1824 8.65546C27.0652 8.77267 26.9062 8.83852 26.7405 8.83852H13.6887C13.5229 8.83852 13.364 8.77267 13.2467 8.65546C13.1295 8.53825 13.0637 8.37928 13.0637 8.21352C13.0637 8.04776 13.1295 7.88878 13.2467 7.77157C13.364 7.65436 13.5229 7.58852 13.6887 7.58852ZM13.6887 10.574H26.7405C26.9062 10.574 27.0652 10.6398 27.1824 10.757C27.2996 10.8743 27.3655 11.0332 27.3655 11.199C27.3655 11.3647 27.2996 11.5237 27.1824 11.6409C27.0652 11.7581 26.9062 11.824 26.7405 11.824H13.6887C13.5229 11.824 13.364 11.7581 13.2467 11.6409C13.1295 11.5237 13.0637 11.3647 13.0637 11.199C13.0637 11.0332 13.1295 10.8743 13.2467 10.757C13.364 10.6398 13.5229 10.574 13.6887 10.574ZM10.0893 25.7698C10.089 25.9355 10.023 26.0943 9.90589 26.2114C9.78875 26.3286 9.62997 26.3945 9.46432 26.3948H6.79549C6.62983 26.3945 6.47105 26.3286 6.35391 26.2114C6.23677 26.0943 6.17082 25.9355 6.17049 25.7698V23.1011C6.17082 22.9354 6.23677 22.7767 6.35391 22.6595C6.47105 22.5424 6.62983 22.4764 6.79549 22.4761H9.46432C9.62997 22.4764 9.78875 22.5424 9.90589 22.6595C10.023 22.7767 10.089 22.9354 10.0893 23.1011V25.7698ZM10.0893 18.4053C10.089 18.571 10.023 18.7298 9.90589 18.8469C9.78875 18.964 9.62997 19.03 9.46432 19.0303H6.79549C6.62983 19.03 6.47105 18.964 6.35391 18.8469C6.23677 18.7298 6.17082 18.571 6.17049 18.4053V15.7365C6.17082 15.5708 6.23677 15.412 6.35391 15.2949C6.47105 15.1778 6.62983 15.1118 6.79549 15.1115H9.46432C9.62997 15.1118 9.78875 15.1778 9.90589 15.2949C10.023 15.412 10.089 15.5708 10.0893 15.7365V18.4053ZM10.0893 11.0407C10.089 11.2064 10.023 11.3651 9.90589 11.4823C9.78875 11.5994 9.62997 11.6654 9.46432 11.6657H6.79549C6.62983 11.6654 6.47105 11.5994 6.35391 11.4823C6.23677 11.3651 6.17082 11.2064 6.17049 11.0407V8.37188C6.17082 8.20622 6.23677 8.04744 6.35391 7.9303C6.47105 7.81316 6.62983 7.74721 6.79549 7.74688H9.46432C9.62997 7.74721 9.78875 7.81316 9.90589 7.9303C10.023 8.04744 10.089 8.20622 10.0893 8.37188V11.0407Z" fill="white"/>
</svg>
