<svg width="40" height="40" viewBox="0 0 40 40" fill="none" xmlns="http://www.w3.org/2000/svg">
<path d="M30 20H26.25V38.125H23.75V23.75H20V38.125H17.5V28.75H13.75V38.125H11.25V26.25H7.5V38.125H5V21.25H1.25V38.125H0.625V39.375H30.625V38.125H30V20Z" fill="white"/>
<path d="M3.125 16.875C3.68625 16.875 4.19938 16.6825 4.61688 16.3688L7.09813 18.3537C6.9575 18.6669 6.875 19.0106 6.875 19.375C6.875 20.7538 7.99625 21.875 9.375 21.875C10.2 21.875 10.9263 21.4687 11.3819 20.8512L13.1562 21.5613C13.1437 21.665 13.125 21.7675 13.125 21.875C13.125 23.2538 14.2462 24.375 15.625 24.375C17.0038 24.375 18.125 23.2538 18.125 21.875C18.125 21.5106 18.0425 21.1669 17.9019 20.8544L20.3831 18.8694C20.8006 19.1825 21.3137 19.375 21.875 19.375C23.2538 19.375 24.375 18.2538 24.375 16.875C24.375 16.6294 24.3281 16.3962 24.2619 16.1719L26.3738 14.905C26.825 15.3494 27.4431 15.625 28.125 15.625C29.5038 15.625 30.625 14.5038 30.625 13.125C30.625 11.7462 29.5038 10.625 28.125 10.625C26.7462 10.625 25.625 11.7462 25.625 13.125C25.625 13.3706 25.6719 13.6038 25.7381 13.8281L23.6262 15.095C23.175 14.6506 22.5569 14.375 21.875 14.375C20.4962 14.375 19.375 15.4962 19.375 16.875C19.375 17.2394 19.4575 17.5831 19.5981 17.8963L17.1169 19.8812C16.6994 19.5675 16.1863 19.375 15.625 19.375C14.8 19.375 14.0737 19.7813 13.6181 20.3988L11.8431 19.6888C11.8562 19.585 11.875 19.4825 11.875 19.375C11.875 17.9962 10.7538 16.875 9.375 16.875C8.81375 16.875 8.30062 17.0675 7.88312 17.3812L5.40187 15.3963C5.5425 15.0831 5.625 14.7394 5.625 14.375C5.625 12.9962 4.50375 11.875 3.125 11.875C1.74625 11.875 0.625 12.9962 0.625 14.375C0.625 15.7538 1.74625 16.875 3.125 16.875Z" fill="white"/>
<path d="M37.2887 12.7594C36.9656 10.9763 36.2694 9.325 35.2756 7.89125L36.0488 6.60312L33.3969 3.95125L32.1088 4.72438C30.675 3.73062 29.0237 3.03437 27.2406 2.71125L26.875 1.25H23.125L22.7594 2.71125C20.9763 3.03437 19.325 3.73062 17.8912 4.72438L16.6031 3.95125L13.9513 6.60312L14.7244 7.89125C13.7306 9.325 13.0344 10.9763 12.7112 12.7594L11.25 13.125V15H15C15 9.47688 19.4769 5 25 5C30.5231 5 35 9.47688 35 15C35 18.7012 32.9894 21.9331 30.0006 23.6619V26.4506C30.7437 26.1269 31.4494 25.7325 32.1088 25.2756L33.3969 26.0488L36.0488 23.3969L35.2756 22.1088C36.2694 20.675 36.9656 19.0237 37.2887 17.2406L38.75 16.875V13.125L37.2887 12.7594Z" fill="white"/>
<path d="M24.9999 8.125V6.875C21.5618 6.875 18.4824 9.05187 17.3374 12.2919L18.5155 12.7087C19.4849 9.96687 22.0905 8.125 24.9999 8.125Z" fill="white"/>
<path d="M16.875 15H18.125C18.125 14.6144 18.1569 14.2287 18.22 13.8537L16.9869 13.6462C16.9131 14.09 16.875 14.545 16.875 15Z" fill="white"/>
</svg>
