<svg width="40" height="40" viewBox="0 0 40 40" fill="none" xmlns="http://www.w3.org/2000/svg">
<g clip-path="url(#clip0_7_1336)">
<path d="M33.75 39.375C34.7855 39.375 35.625 38.5355 35.625 37.5C35.625 36.4645 34.7855 35.625 33.75 35.625C32.7145 35.625 31.875 36.4645 31.875 37.5C31.875 38.5355 32.7145 39.375 33.75 39.375Z" fill="white"/>
<path d="M28.3306 32.6206L29.1693 33.5469C31.6949 31.2606 35.8049 31.2606 38.3306 33.5469L39.1693 32.6206C36.1812 29.9144 31.3187 29.9144 28.3306 32.6206Z" fill="white"/>
<path d="M30.2197 34.5119L31.0922 35.4069C32.5572 33.9788 34.9422 33.9788 36.4072 35.4069L37.2797 34.5119C35.3329 32.6138 32.1666 32.6138 30.2197 34.5119Z" fill="white"/>
<path d="M35.625 5V24.1856L34.27 22.1531L33.23 22.8463L36.25 27.3769L39.27 22.8469L38.23 22.1537L36.875 24.1856V5C36.875 3.96625 36.0338 3.125 35 3.125H29.375V4.375H35C35.345 4.375 35.625 4.655 35.625 5Z" fill="white"/>
<path d="M18.75 5.625C19.7855 5.625 20.625 4.78553 20.625 3.75C20.625 2.71447 19.7855 1.875 18.75 1.875C17.7145 1.875 16.875 2.71447 16.875 3.75C16.875 4.78553 17.7145 5.625 18.75 5.625Z" fill="white"/>
<path d="M25 6.875C26.7259 6.875 28.125 5.47589 28.125 3.75C28.125 2.02411 26.7259 0.625 25 0.625C23.2741 0.625 21.875 2.02411 21.875 3.75C21.875 5.47589 23.2741 6.875 25 6.875Z" fill="white"/>
<path d="M4.37498 35V25.8144L5.72998 27.8469L6.76998 27.1538L3.74998 22.6232L0.72998 27.1532L1.76998 27.8463L3.12498 25.8144V35C3.12498 36.0338 3.96623 36.875 4.99998 36.875H10.625V35.625H4.99998C4.65498 35.625 4.37498 35.345 4.37498 35Z" fill="white"/>
<path d="M21.25 38.125C22.2855 38.125 23.125 37.2855 23.125 36.25C23.125 35.2145 22.2855 34.375 21.25 34.375C20.2145 34.375 19.375 35.2145 19.375 36.25C19.375 37.2855 20.2145 38.125 21.25 38.125Z" fill="white"/>
<path d="M15 39.375C16.7259 39.375 18.125 37.9759 18.125 36.25C18.125 34.5241 16.7259 33.125 15 33.125C13.2741 33.125 11.875 34.5241 11.875 36.25C11.875 37.9759 13.2741 39.375 15 39.375Z" fill="white"/>
<path d="M21.8718 26.875H18.1274C18.7818 28.5325 19.5337 29.6694 19.9999 30.2769C20.4662 29.6694 21.2181 28.5331 21.8718 26.875Z" fill="white"/>
<path d="M22.3133 14.375H17.687C17.262 15.7631 16.9527 17.4369 16.8945 19.375H23.1064C23.0483 17.4369 22.7383 15.7631 22.3133 14.375Z" fill="white"/>
<path d="M18.1279 13.125H21.8723C21.2179 11.4675 20.4667 10.3306 20.0004 9.72314C19.5336 10.3306 18.7817 11.4675 18.1279 13.125Z" fill="white"/>
<path d="M24.3561 19.375H30.5936C30.4861 17.5456 29.918 15.8419 28.9973 14.375H23.6211C24.0198 15.7913 24.303 17.4575 24.3561 19.375Z" fill="white"/>
<path d="M23.1054 20.625H16.8936C16.9517 22.5631 17.2611 24.2369 17.6861 25.625H22.3129C22.7379 24.2369 23.0479 22.5631 23.1054 20.625Z" fill="white"/>
<path d="M23.6206 25.625H28.9969C29.9175 24.1581 30.4856 22.4544 30.5931 20.625H24.3556C24.3031 22.5425 24.02 24.2087 23.6206 25.625Z" fill="white"/>
<path d="M28.086 13.125C26.4167 11.1644 24.051 9.82249 21.3735 9.47437C21.9292 10.2756 22.6348 11.4912 23.2242 13.125H28.086Z" fill="white"/>
<path d="M15.6438 20.625H9.40625C9.51375 22.4544 10.0819 24.1581 11.0025 25.625H16.3787C15.98 24.2087 15.6969 22.5425 15.6438 20.625Z" fill="white"/>
<path d="M18.6306 9.46814C17.1188 9.66251 15.6731 10.18 14.375 10.9931V13.125H16.775C17.3669 11.4863 18.0738 10.2688 18.6306 9.46814Z" fill="white"/>
<path d="M7.5 10.625C8.53553 10.625 9.375 9.78553 9.375 8.75C9.375 7.71447 8.53553 6.875 7.5 6.875C6.46447 6.875 5.625 7.71447 5.625 8.75C5.625 9.78553 6.46447 10.625 7.5 10.625Z" fill="white"/>
<path d="M11.9136 26.875C13.5829 28.8356 15.9486 30.1775 18.6261 30.5256C18.0704 29.7244 17.3648 28.5088 16.7754 26.875H11.9136Z" fill="white"/>
<path d="M21.3745 30.5256C24.0514 30.1775 26.4176 28.835 28.087 26.875H23.2251C22.6351 28.5094 21.9301 29.7244 21.3745 30.5256Z" fill="white"/>
<path d="M3.125 19.375H11.875C12.5644 19.375 13.125 18.8144 13.125 18.125V16.875H1.875V18.125C1.875 18.8144 2.43562 19.375 3.125 19.375Z" fill="white"/>
<path d="M16.3796 14.375H14.3752V18.125C14.3752 18.58 14.2533 19.0069 14.0396 19.375H15.6446C15.6971 17.4575 15.9802 15.7913 16.3796 14.375Z" fill="white"/>
<path d="M11.875 1.875H3.125C2.43562 1.875 1.875 2.43562 1.875 3.125H13.125C13.125 2.43562 12.5644 1.875 11.875 1.875Z" fill="white"/>
<path d="M3.125 15C3.125 13.3138 4.08563 11.85 5.48688 11.12C4.8125 10.5462 4.375 9.7025 4.375 8.75C4.375 7.02688 5.77688 5.625 7.5 5.625C9.22312 5.625 10.625 7.02688 10.625 8.75C10.625 9.7025 10.1875 10.5462 9.51312 11.12C10.9144 11.85 11.875 13.3138 11.875 15V15.625H13.125V4.375H1.875V15.625H3.125V15Z" fill="white"/>
<path d="M4.375 15V15.625H10.625V15C10.625 13.2769 9.22312 11.875 7.5 11.875C5.77688 11.875 4.375 13.2769 4.375 15Z" fill="white"/>
</g>
<defs>
<clipPath id="clip0_7_1336">
<rect width="40" height="40" fill="white"/>
</clipPath>
</defs>
</svg>
