<svg width="60" height="60" viewBox="0 0 60 60" fill="none" xmlns="http://www.w3.org/2000/svg">
<path fill-rule="evenodd" clip-rule="evenodd" d="M12.436 26.5957H9.65049C9.33643 27.8203 8.22432 28.7273 6.90361 28.7273C5.34033 28.7273 4.06885 27.4559 4.06885 25.8926C4.06885 24.3293 5.34033 23.0578 6.90361 23.0578C8.22432 23.0578 9.33643 23.966 9.65049 25.1895H12.436V26.5957ZM30.0001 26.9086H29.9978H29.9954H29.9931H29.9907C29.9497 26.9086 29.9087 26.9098 29.8677 26.9109H29.8653H29.863H29.8606H29.8595H29.8571H29.8548H29.8513H29.8501H29.8478H29.8454H29.8431H29.8419H29.8396H29.8372L29.8349 26.9121L29.72 26.9156H29.7177H29.7165H29.7142L29.7036 26.9168L29.6896 26.918H29.6872H29.686H29.6837H29.6813H29.6802H29.6778L29.6696 26.9191H29.6685L29.5841 26.9238H29.5817L29.5794 26.925H29.5782H29.5759H29.5735H29.5724H29.57H29.5677H29.5665L29.5642 26.9262H29.5606H29.5571L29.5419 26.9273L29.447 26.9355L29.386 26.9414L29.2993 26.952H29.297L29.2419 26.959L29.2138 26.9625L29.1856 26.9672C28.663 27.041 28.1626 27.1863 27.695 27.3914L27.6692 27.4031L27.5919 27.4371L27.5661 27.4488C25.6032 28.3687 24.2403 30.3621 24.2403 32.6695C24.2403 35.8453 26.8243 38.4293 30.0001 38.4293C33.1759 38.4293 35.7599 35.8453 35.7599 32.6695C35.7599 30.4441 34.4919 28.5094 32.6403 27.5508L32.6345 27.5484L32.6075 27.5344L32.6063 27.5332L32.5325 27.4969L32.5313 27.4957L32.4517 27.4582L32.4247 27.4453C31.9243 27.2121 31.3864 27.0492 30.8216 26.9684L30.7911 26.9637L30.7618 26.9602L30.7032 26.952H30.7009L30.6142 26.9414L30.5532 26.9355L30.4583 26.9273L30.4431 26.9262H30.4396H30.436L30.4337 26.925H30.4325H30.4302H30.4278H30.4267H30.4243H30.422H30.4208L30.4185 26.9238H30.4161L30.3317 26.9191H30.3294H30.3282L30.3259 26.918H30.3224H30.32H30.3177H30.3165H30.3142H30.3118H30.3106L30.2896 26.9168L30.286 26.9156H30.2849H30.2825H30.2802L30.1606 26.9109H30.1595H30.1571H30.1548H30.1524H30.1501H30.1489H30.1454H30.1431H30.1407H30.1396H30.1372H30.1349H30.1325C30.0915 26.9098 30.0505 26.9086 30.0095 26.9086H30.0071H30.0048H30.0024H30.0001ZM29.297 33.184C28.4743 32.8934 27.8837 32.1082 27.8837 31.1883C27.8837 30.0211 28.8329 29.0719 30.0001 29.0719C31.1673 29.0719 32.1165 30.0211 32.1165 31.1883C32.1165 32.1082 31.5259 32.8934 30.7032 33.184V35.5641C30.7032 35.952 30.388 36.2672 30.0001 36.2672C29.6122 36.2672 29.297 35.952 29.297 35.5641V33.184ZM30.0001 30.4781C29.6087 30.4781 29.2899 30.7969 29.2899 31.1883C29.2899 31.5797 29.6087 31.8984 30.0001 31.8984C30.3915 31.8984 30.7103 31.5797 30.7103 31.1883C30.7103 30.7969 30.3915 30.4781 30.0001 30.4781ZM30.0001 50.2266C29.904 50.2266 29.8091 50.2066 29.7188 50.168C22.6044 47.0648 18.6845 43.268 16.6501 40.6301C14.4071 37.7227 13.8821 35.5488 13.861 35.4574C13.8481 35.4047 13.8423 35.352 13.8423 35.298V16.4883C13.8423 16.1988 14.0204 15.9387 14.2911 15.8332L29.7458 9.82148C29.9099 9.75703 30.0915 9.75703 30.2556 9.82148L45.7103 15.8332C45.9798 15.9387 46.1579 16.1988 46.1579 16.4883V35.298C46.1579 35.3508 46.1521 35.4047 46.1392 35.4574C46.1181 35.5488 45.5931 37.7227 43.3501 40.6301C41.3157 43.268 37.3958 47.0648 30.2813 50.168C30.1911 50.2066 30.0962 50.2266 30.0001 50.2266ZM30.7032 26.952H30.702H30.7009M30.1325 26.9109C30.0915 26.9098 30.0505 26.9098 30.0095 26.9086L30.1325 26.9109ZM29.9907 26.9086C29.9497 26.9086 29.9087 26.9098 29.8677 26.9109L29.9907 26.9086ZM29.8349 26.9121C29.7962 26.9133 29.7587 26.9133 29.72 26.9156L29.8349 26.9121ZM29.2993 26.952H29.2981H29.297M27.5919 27.4371L27.5661 27.4488L27.5919 27.4371ZM23.9825 28.7812V26.1809C23.9825 22.8633 26.6825 20.1633 30.0001 20.1633C33.3177 20.1633 36.0177 22.8633 36.0177 26.1809V28.7812C36.7442 29.9016 37.1661 31.2375 37.1661 32.6695C37.1661 36.6211 33.9517 39.8355 30.0001 39.8355C26.0485 39.8355 22.8341 36.6211 22.8341 32.6695C22.8341 31.2375 23.256 29.9016 23.9825 28.7812ZM30.0001 25.5023C30.0622 25.5023 30.1231 25.5035 30.1841 25.5059H30.1853C30.2427 25.507 30.3001 25.5094 30.3575 25.5117L30.3786 25.5129C30.4313 25.5152 30.4829 25.5188 30.5345 25.5234H30.5509L30.5567 25.5246H30.5603C30.6095 25.5281 30.6587 25.5328 30.7079 25.5375L30.7665 25.5445L30.8767 25.5574L30.9493 25.5656L31.0278 25.5773L31.0349 25.5785C31.7228 25.6781 32.379 25.8762 32.9896 26.1574L33.0681 26.1938L33.1278 26.2219C33.6587 26.4797 34.1567 26.8031 34.6114 27.184V26.1809C34.6114 23.6391 32.5431 21.5695 30.0001 21.5695C27.4571 21.5695 25.3888 23.6391 25.3888 26.1809V27.184C25.8024 26.8371 26.2524 26.5383 26.7294 26.2934L26.7399 26.2887L26.7505 26.2828C26.7892 26.2629 26.8278 26.2441 26.8677 26.2242L26.9274 26.1961L27.0071 26.1586L27.095 26.1188L27.1196 26.1082C27.6985 25.8527 28.3173 25.6723 28.9642 25.5785L28.9724 25.5773L29.0509 25.5656L29.1235 25.5574L29.2337 25.5445L29.2923 25.5375C29.3415 25.5328 29.3907 25.5281 29.4399 25.5246H29.4435L29.4493 25.5234H29.4657C29.5173 25.5188 29.5688 25.5152 29.6216 25.5129L29.6427 25.5117C29.7001 25.5094 29.7575 25.507 29.8149 25.5059H29.8161C29.8771 25.5035 29.938 25.5023 30.0001 25.5023ZM30.0001 45.723C29.904 45.723 29.8091 45.7043 29.7188 45.6645C19.1239 41.0438 17.4903 34.5117 17.4259 34.2352C17.413 34.1836 17.4071 34.1297 17.4071 34.0758V19.6043C17.4071 19.3148 17.5853 19.0547 17.8548 18.9492L29.7458 14.3238C29.9087 14.2605 30.0915 14.2605 30.2556 14.3238L42.1454 18.9492C42.4149 19.0547 42.5931 19.3148 42.5931 19.6043V34.0758C42.5931 34.1297 42.5872 34.1836 42.5743 34.2352C42.511 34.5117 40.8751 41.0438 30.2813 45.6645C30.1911 45.7043 30.0962 45.723 30.0001 45.723ZM18.8134 33.982C18.906 34.2973 19.37 35.6977 20.7751 37.4965C22.2259 39.3527 24.9985 42.0164 30.0001 44.2512C35.0017 42.0176 37.7743 39.3527 39.2251 37.4965C40.6278 35.7012 41.0931 34.302 41.1868 33.982V20.0859L30.0001 15.7336L18.8134 20.0859V33.982ZM19.1872 10.0594C17.9638 9.74531 17.0556 8.6332 17.0556 7.3125C17.0556 5.75039 18.3271 4.47773 19.8903 4.47773C21.4536 4.47773 22.7251 5.75039 22.7251 7.3125C22.7251 8.6332 21.8181 9.74531 20.5935 10.0594V11.8723L19.1872 12.4195V10.0594ZM39.4067 10.0594C38.1821 9.74531 37.2751 8.6332 37.2751 7.3125C37.2751 5.75039 38.5466 4.47773 40.1099 4.47773H40.111H40.1122C41.6743 4.47891 42.9446 5.75039 42.9446 7.3125C42.9446 8.6332 42.0364 9.74531 40.813 10.0594V12.4195L39.4067 11.8723V10.0594ZM29.297 5.58164C28.0724 5.26758 27.1653 4.15547 27.1653 2.83477C27.1653 1.27148 28.4368 0 30.0001 0C31.5634 0 32.8349 1.27148 32.8349 2.83477C32.8349 4.15547 31.9278 5.26758 30.7032 5.58164V8.48789C30.2485 8.32734 29.7517 8.32734 29.297 8.48789V5.58164ZM19.8903 55.5223C18.3271 55.5223 17.0556 54.2496 17.0556 52.6875C17.0556 51.3668 17.9638 50.2547 19.1872 49.9406V45.3246C19.6442 45.7219 20.113 46.1051 20.5935 46.4754V49.9406C21.8181 50.2547 22.7251 51.3668 22.7251 52.6875C22.7251 54.2496 21.4536 55.5223 19.8903 55.5223ZM40.1122 55.5223C40.111 55.5223 40.111 55.5223 40.1099 55.5223C38.5466 55.5223 37.2751 54.2496 37.2751 52.6875C37.2751 51.3668 38.1821 50.2547 39.4067 49.9406V46.4754C39.8872 46.1051 40.356 45.7219 40.813 45.3246V49.9406C42.0364 50.2547 42.9446 51.3668 42.9446 52.6875C42.9446 54.2484 41.6755 55.5199 40.1146 55.5223C40.1134 55.5223 40.1134 55.5223 40.1122 55.5223ZM30.0001 60C28.4368 60 27.1653 58.7285 27.1653 57.1652C27.1653 55.8445 28.0735 54.7324 29.297 54.4184V51.5121C29.522 51.5918 29.7599 51.6328 30.0001 51.6328C30.2403 51.6328 30.4782 51.5918 30.7032 51.5121V54.4184C31.9278 54.7324 32.8349 55.8445 32.8349 57.1652C32.8349 58.7285 31.5634 60 30.0001 60ZM53.0966 35.6836C51.7759 35.6836 50.6638 34.7754 50.3497 33.552H47.5642V32.1457H50.3497C50.6638 30.9211 51.7759 30.0141 53.0966 30.0141C54.6599 30.0141 55.9313 31.2855 55.9313 32.8488C55.9313 34.4109 54.6599 35.6836 53.0966 35.6836ZM53.0966 21.7723C51.7759 21.7723 50.6638 20.8652 50.3497 19.6406H47.5642V18.2344H50.3497C50.6638 17.0109 51.7759 16.1027 53.0966 16.1027C54.6599 16.1027 55.9313 17.3742 55.9313 18.9375C55.9313 20.5008 54.6599 21.7723 53.0966 21.7723ZM53.0966 28.7273C51.7759 28.7273 50.6638 27.8203 50.3497 26.5969H47.5642V25.1906H50.3497C50.6638 23.966 51.7759 23.059 53.0966 23.059C54.6599 23.059 55.9313 24.3305 55.9313 25.8938C55.9313 27.4559 54.6599 28.7273 53.0966 28.7273ZM6.90361 35.6836C5.34033 35.6836 4.06885 34.4109 4.06885 32.8477C4.06885 31.2855 5.34033 30.0141 6.90361 30.0141C8.22432 30.0141 9.33643 30.9211 9.65049 32.1445H12.436V33.5508H9.65049C9.33643 34.7754 8.22432 35.6836 6.90361 35.6836ZM6.90361 21.7723C5.34033 21.7723 4.06885 20.5008 4.06885 18.9375C4.06885 17.3742 5.34033 16.1027 6.90361 16.1027C8.22432 16.1027 9.33643 17.0109 9.65049 18.2344H12.436V19.6406H9.65049C9.33643 20.8652 8.22432 21.7723 6.90361 21.7723Z" fill="#00225F"/>
</svg>
