<svg width="40" height="40" viewBox="0 0 40 40" fill="none" xmlns="http://www.w3.org/2000/svg">
<path d="M14.9058 35.9059V31.7014C14.9058 31.4819 14.7282 31.3042 14.5087 31.3042C14.2894 31.3042 14.1115 31.4819 14.1115 31.7014V35.9059H11.4536C11.4633 34.6122 11.5458 31.7456 12.0541 29.9329C12.1906 29.4452 12.3468 29.0687 12.5602 28.7113C12.7367 28.416 13.2458 27.6734 14.16 27.159C14.9324 26.7242 15.6731 26.6334 16.1922 26.6409L16.7618 27.0565C16.7621 27.0565 16.7621 27.0567 16.7623 27.0567L18.9411 28.6461C19.0778 28.7456 19.2626 28.748 19.4014 28.6515L21.683 27.0713C21.6844 27.0703 21.6858 27.0694 21.687 27.0682L22.304 26.6409C22.823 26.6318 23.5668 26.7226 24.3414 27.1588C25.2557 27.6734 25.7647 28.4155 25.9411 28.711C26.1546 29.0685 26.3108 29.4449 26.4475 29.9325C26.9555 31.7454 27.0381 34.6122 27.048 35.9056H24.3898V31.7012C24.3898 31.4816 24.2122 31.304 23.9927 31.304C23.7731 31.304 23.5955 31.4816 23.5955 31.7012V35.9059H14.9058Z" fill="white"/>
<path d="M20.9669 26.6012L19.1815 27.8379L17.4827 26.5988C17.6175 26.1722 17.7274 25.5741 17.7457 25.1266C18.2255 25.3336 18.7415 25.4419 19.2735 25.4419C19.7573 25.4419 20.2278 25.3525 20.67 25.1805C20.7053 25.6365 20.8224 26.1904 20.9669 26.6012Z" fill="white"/>
<path d="M22.6477 19.3172V20.8694C22.6477 22.2939 21.9399 23.537 20.8975 24.1805C20.4154 24.4781 19.862 24.6475 19.2738 24.6475C18.6124 24.6475 17.9945 24.4334 17.4728 24.0635C16.5279 23.3932 15.8994 22.212 15.8994 20.8694V19.3734C16.1646 19.257 16.5801 19.0468 16.9342 18.7464C17.1959 18.8963 17.6258 19.1005 18.2001 19.2323C19.0415 19.4247 20.3714 19.4944 22.0164 18.7859C22.1726 18.9351 22.4032 19.1419 22.6477 19.3172Z" fill="white"/>
<path d="M23.4027 17.2132C23.4323 17.5395 23.2761 17.8736 23.1368 18.1285C23.1309 18.1395 23.1149 18.1701 23.0923 18.2136C23.025 18.3433 22.9705 18.4475 22.9258 18.5306C22.6356 18.2958 22.3935 18.0416 22.3902 18.0384C22.2723 17.9136 22.0876 17.8791 21.9326 17.952C20.6987 18.5334 19.5166 18.7068 18.4187 18.4671C17.6003 18.2882 17.1345 17.9334 17.1314 17.9311C16.9674 17.8012 16.7307 17.8212 16.5905 17.9765C16.3556 18.236 16.0142 18.4369 15.7526 18.5654C15.7048 18.3254 15.6888 18.0675 15.673 17.8151C15.653 17.4925 15.63 17.1266 15.705 16.8125C15.7648 16.5612 15.9403 16.2567 16.2262 15.9073C16.2726 15.8504 16.3213 15.7948 16.3712 15.7417C17.022 15.0452 18.1582 14.5901 18.9335 14.412C19.4818 14.2859 20.001 14.2407 20.477 14.2772C20.8159 14.3035 21.0968 14.3487 21.3361 14.4158C21.4723 14.4539 21.6554 14.5308 21.7516 14.6798C21.7999 14.7541 21.8382 14.8539 21.8789 14.9593C21.946 15.1329 22.0222 15.3299 22.1726 15.5078C22.3065 15.6659 22.4592 15.7866 22.594 15.8929C22.7036 15.9795 22.8072 16.0612 22.8874 16.1518C23.1126 16.4054 23.3695 16.8459 23.4027 17.2132Z" fill="white"/>
<path d="M38.0706 4.53106V13.4504H33.3531C33.0609 13.4504 32.787 13.5289 32.551 13.6668V5.33294C32.551 4.89082 32.911 4.53082 33.3531 4.53082H38.0706V4.53106ZM36.607 6.53271C36.607 6.31341 36.4291 6.13553 36.2098 6.13553H34.4117C34.1922 6.13553 34.0146 6.31341 34.0146 6.53271C34.0146 6.75223 34.1922 6.92988 34.4117 6.92988H36.2098C36.4291 6.92988 36.607 6.75223 36.607 6.53271ZM36.607 8.99082C36.607 8.77129 36.4291 8.59365 36.2098 8.59365H34.4117C34.1922 8.59365 34.0146 8.77129 34.0146 8.99082C34.0146 9.21012 34.1922 9.388 34.4117 9.388H36.2098C36.4291 9.388 36.607 9.21012 36.607 8.99082ZM36.607 11.4487C36.607 11.2292 36.4291 11.0515 36.2098 11.0515H34.4117C34.1922 11.0515 34.0146 11.2292 34.0146 11.4487C34.0146 11.6682 34.1922 11.8459 34.4117 11.8459H36.2098C36.4291 11.8459 36.607 11.6682 36.607 11.4487Z" fill="white"/>
<path d="M31.7568 5.33289V13.6668C31.5211 13.5291 31.247 13.4503 30.9547 13.4503H26.2373V4.53101H30.9547C31.3973 4.53101 31.7568 4.89101 31.7568 5.33289ZM30.2933 6.53265C30.2933 6.31336 30.1157 6.13548 29.8961 6.13548H28.098C27.8785 6.13548 27.7008 6.31336 27.7008 6.53265C27.7008 6.75218 27.8785 6.92983 28.098 6.92983H29.8961C30.1157 6.92983 30.2933 6.75218 30.2933 6.53265ZM30.2933 8.99077C30.2933 8.77124 30.1157 8.59359 29.8961 8.59359H28.098C27.8785 8.59359 27.7008 8.77124 27.7008 8.99077C27.7008 9.21006 27.8785 9.38795 28.098 9.38795H29.8961C30.1157 9.38795 30.2933 9.21006 30.2933 8.99077ZM30.2933 11.4487C30.2933 11.2291 30.1157 11.0515 29.8961 11.0515H28.098C27.8785 11.0515 27.7008 11.2291 27.7008 11.4487C27.7008 11.6682 27.8785 11.8458 28.098 11.8458H29.8961C30.1157 11.8458 30.2933 11.6682 30.2933 11.4487Z" fill="white"/>
<path d="M7.42581 8.09082C8.25263 8.09082 8.92534 8.76353 8.92534 9.59035C8.92534 10.4172 8.25263 11.0899 7.42581 11.0899C6.59898 11.0899 5.92651 10.4172 5.92651 9.59035C5.92651 8.76353 6.59898 8.09082 7.42581 8.09082Z" fill="white"/>
<path d="M12.9219 8.77106V10.4094H11.7459C11.568 10.4094 11.4118 10.5278 11.3636 10.6991C11.2767 11.0087 11.1523 11.3085 10.9939 11.5904C10.9066 11.7454 10.9334 11.9395 11.0591 12.0656L11.8911 12.8974L10.7327 14.0555L9.90097 13.2238C9.77509 13.0979 9.58074 13.0711 9.42568 13.1581C9.1438 13.3165 8.8438 13.4409 8.53438 13.528C8.36309 13.5762 8.24474 13.7322 8.24474 13.9104V15.0861H6.60662V13.9106C6.60662 13.7327 6.48827 13.5765 6.31674 13.5282C6.00756 13.4412 5.70733 13.3167 5.42568 13.1584C5.27062 13.0713 5.07627 13.0981 4.95038 13.224L4.11862 14.0558L2.96027 12.8976L3.79203 12.0659C3.91815 11.9398 3.94474 11.7456 3.85768 11.5904C3.69933 11.3087 3.57486 11.0087 3.48803 10.6993C3.4398 10.528 3.28356 10.4096 3.10544 10.4096H1.92944V8.77129H3.10521C3.28309 8.77129 3.43956 8.65294 3.4878 8.48165C3.57462 8.172 3.69909 7.87223 3.85744 7.59059C3.9445 7.43529 3.91791 7.24118 3.7918 7.11506L2.96003 6.28329L4.11838 5.12518L4.95015 5.95694C5.07603 6.08282 5.27038 6.10965 5.42544 6.02259C5.70709 5.86423 6.00733 5.73976 6.3165 5.6527C6.48803 5.60447 6.60638 5.44847 6.60638 5.27035V4.09412H8.2445V5.26988C8.2445 5.44776 8.36286 5.604 8.53415 5.65223C8.8438 5.73929 9.14356 5.86376 9.42544 6.02212C9.5805 6.10917 9.77486 6.08235 9.90074 5.95647L10.7325 5.1247L11.8909 6.28282L11.0589 7.11459C10.933 7.2407 10.9061 7.43482 10.9937 7.59012C11.152 7.87176 11.2765 8.17176 11.3633 8.48118C11.4116 8.65247 11.5676 8.77082 11.7457 8.77082H12.9219V8.77106ZM9.71933 9.59035C9.71933 8.32565 8.69038 7.29647 7.42544 7.29647C6.16074 7.29647 5.1318 8.32565 5.1318 9.59035C5.1318 10.8551 6.16074 11.8842 7.42544 11.8842C8.69062 11.8842 9.71933 10.8551 9.71933 9.59035Z" fill="white"/>
<path d="M32.5511 18.2026V22.0814C32.5511 22.3007 32.3735 22.4786 32.1539 22.4786H28.2754C28.0558 22.4786 27.8782 22.3007 27.8782 22.0814C27.8782 21.8619 28.0558 21.6842 28.2754 21.6842H31.757V18.2026C31.757 17.9831 31.9346 17.8054 32.1542 17.8054C32.3735 17.8054 32.5511 17.9833 32.5511 18.2026Z" fill="white"/>
<path d="M22.0503 8.7337C22.2696 8.7337 22.4475 8.91135 22.4475 9.13088C22.4475 9.35041 22.2696 9.52806 22.0503 9.52806H17.4536C17.2343 9.52806 17.0564 9.35041 17.0564 9.13088C17.0564 8.91135 17.2343 8.7337 17.4536 8.7337H22.0503Z" fill="white"/>
<path d="M11.3043 21.6842C11.5239 21.6842 11.7015 21.8619 11.7015 22.0814C11.7015 22.3007 11.5239 22.4786 11.3043 22.4786H7.42574C7.20645 22.4786 7.02856 22.3007 7.02856 22.0814V18.2026C7.02856 17.9831 7.20645 17.8054 7.42574 17.8054C7.64527 17.8054 7.82292 17.9831 7.82292 18.2026V21.6842H11.3043Z" fill="white"/>
</svg>
