<svg width="40" height="40" viewBox="0 0 40 40" fill="none" xmlns="http://www.w3.org/2000/svg">
<g clip-path="url(#clip0_7_1380)">
<path d="M9.89731 20.2052C4.43969 20.2052 0 24.6449 0 30.1018C0 35.5594 4.43969 39.9991 9.89731 39.9991C15.3541 39.9991 19.7938 35.5594 19.7938 30.1018C19.7938 24.6449 15.3541 20.2052 9.89731 20.2052ZM9.89731 28.6167C10.5449 28.6167 11.0691 29.1409 11.0691 29.7885C11.0691 30.4353 10.5449 30.9603 9.89731 30.9603C9.25046 30.9603 8.72547 30.4353 8.72547 29.7885C8.72547 29.1409 9.25046 28.6167 9.89731 28.6167ZM5.29513 31.0244C5.26622 31.0267 5.2381 31.0275 5.20997 31.0275C4.60062 31.0275 4.08657 30.5564 4.04283 29.9393C4.03814 29.876 4.03814 29.8229 4.03814 29.7885C4.03814 29.7619 4.03814 29.7244 4.0397 29.6799C4.07642 27.6393 5.19591 25.7386 6.96694 24.7144C7.52708 24.3902 8.24346 24.5816 8.56767 25.1418C8.89187 25.7019 8.70047 26.4183 8.14034 26.7425C7.07241 27.3604 6.39899 28.5073 6.38337 29.7369C6.38259 29.7518 6.38259 29.7666 6.38181 29.7815V29.7955C6.41462 30.4307 5.9326 30.9791 5.29513 31.0244ZM12.755 34.9039C11.8863 35.3906 10.8981 35.6477 9.89731 35.6477C8.89656 35.6477 7.90832 35.3906 7.0396 34.9039C6.47477 34.5875 6.27322 33.8735 6.58961 33.3087C6.90601 32.7439 7.62004 32.5423 8.18487 32.8587C8.70438 33.1501 9.29655 33.304 9.89731 33.304C10.4981 33.304 11.0902 33.1501 11.6097 32.8587C12.1746 32.5431 12.8886 32.7439 13.205 33.3087C13.5206 33.8735 13.3198 34.5875 12.755 34.9039ZM15.7518 29.9393C15.7073 30.5564 15.1932 31.0275 14.5839 31.0275C14.5557 31.0275 14.5276 31.0267 14.4995 31.0244C13.8612 30.9791 13.3792 30.4307 13.4128 29.7955V29.7815C13.412 29.7666 13.4112 29.7518 13.4112 29.7369C13.3948 28.5073 12.7214 27.3604 11.6543 26.7425C11.0934 26.4183 10.902 25.7019 11.2262 25.1418C11.5504 24.5816 12.2675 24.3902 12.8277 24.7144C14.5979 25.7386 15.7182 27.6393 15.7541 29.6799C15.7565 29.7244 15.7565 29.7619 15.7565 29.7885C15.7565 29.8229 15.7565 29.876 15.7518 29.9393Z" fill="white"/>
<path d="M9.32249 5.8081H24.0392C25.3032 5.8081 26.3313 6.83619 26.3313 8.09942V8.58769H16.9566C16.3512 8.58769 15.8449 9.04939 15.7895 9.65249C15.7871 9.6814 15.6262 11.3907 15.1707 14.0851H31.5405C31.0858 11.3923 30.9241 9.67905 30.9217 9.65249C30.8663 9.04939 30.36 8.58769 29.7546 8.58769H28.6749V8.09942C28.6749 5.54404 26.5953 3.46443 24.0392 3.46443H9.32249C8.05926 3.46443 7.03117 2.43634 7.03117 1.17232C7.03117 0.52547 6.50619 0.000488281 5.85933 0.000488281C5.2117 0.000488281 4.6875 0.52547 4.6875 1.17232C4.6875 3.72848 6.76633 5.8081 9.32249 5.8081Z" fill="white"/>
<path d="M9.32233 10.4956H12.193C12.8402 10.4956 13.3648 9.97095 13.3648 9.32378C13.3648 8.67662 12.8402 8.15195 12.193 8.15195H9.32233C6.41767 8.15195 3.78698 6.31881 2.77568 3.58906C2.48898 2.81807 2.34367 2.00505 2.34367 1.17251C2.34367 0.52534 1.819 0.000671387 1.17183 0.000671387C0.524669 0.000671387 0 0.52534 0 1.17251C0 2.28481 0.194759 3.37266 0.578417 4.4045C1.92821 8.04781 5.44207 10.4956 9.32233 10.4956Z" fill="white"/>
<path d="M39.8251 38.2132C36.0268 32.0345 33.8097 24.6129 32.6183 19.4756C32.3691 18.4014 32.1535 17.3796 31.9675 16.4288H14.7431C14.6041 17.1382 14.4486 17.8881 14.2744 18.6701C18.868 20.4357 22.1374 24.8941 22.1374 30.1018C22.1374 34.1649 20.1476 37.771 17.0923 39.9991H38.8267C39.7151 40.0267 40.3132 38.9555 39.8251 38.2132Z" fill="white"/>
</g>
<defs>
<clipPath id="clip0_7_1380">
<rect width="40" height="40" fill="white"/>
</clipPath>
</defs>
</svg>
