<svg width="45" height="45" viewBox="0 0 45 45" fill="none" xmlns="http://www.w3.org/2000/svg">
<g clip-path="url(#clip0_7_319)">
<g filter="url(#filter0_d_7_319)">
<path d="M22.5 0L32.175 5.74241L41.9856 11.25L41.85 22.5L41.9856 33.75L32.175 39.2576L22.5 45L12.825 39.2576L3.01443 33.75L3.15 22.5L3.01443 11.25L12.825 5.74241L22.5 0Z" fill="white"/>
<path d="M31.9198 6.17238L31.9197 6.1725L31.9302 6.1784L41.482 11.5407L41.35 22.494L41.3499 22.494L41.35 22.506L41.482 33.4593L31.9302 38.8216L31.9302 38.8215L31.9198 38.8276L22.5 44.4186L13.0802 38.8276L13.0803 38.8275L13.0698 38.8216L3.51797 33.4593L3.64997 22.506L3.65011 22.506L3.64997 22.494L3.51797 11.5407L13.0698 6.1784L13.0698 6.17853L13.0802 6.17238L22.5 0.581437L31.9198 6.17238Z" stroke="#03245F"/>
</g>
<path d="M27.3333 24.6L22.1333 19.4L16.9333 24.6" stroke="#03245F" stroke-width="1.73333" stroke-linecap="square"/>
</g>
<defs>
<filter id="filter0_d_7_319" x="-3.11893" y="-6.13333" width="51.2379" height="57.2667" filterUnits="userSpaceOnUse" color-interpolation-filters="sRGB">
<feFlood flood-opacity="0" result="BackgroundImageFix"/>
<feColorMatrix in="SourceAlpha" type="matrix" values="0 0 0 0 0 0 0 0 0 0 0 0 0 0 0 0 0 0 127 0" result="hardAlpha"/>
<feOffset/>
<feGaussianBlur stdDeviation="3.06667"/>
<feComposite in2="hardAlpha" operator="out"/>
<feColorMatrix type="matrix" values="0 0 0 0 0 0 0 0 0 0.580392 0 0 0 0 0.85098 0 0 0 0.25 0"/>
<feBlend mode="normal" in2="BackgroundImageFix" result="effect1_dropShadow_7_319"/>
<feBlend mode="normal" in="SourceGraphic" in2="effect1_dropShadow_7_319" result="shape"/>
</filter>
<clipPath id="clip0_7_319">
<rect width="45" height="45" fill="white"/>
</clipPath>
</defs>
</svg>
